<?xml version="1.0" encoding="utf-8"?>
<!-- Generator: Adobe Illustrator 22.1.0, SVG Export Plug-In . SVG Version: 6.00 Build 0)  -->
<svg version="1.1" id="Layer_1" xmlns="http://www.w3.org/2000/svg" xmlns:xlink="http://www.w3.org/1999/xlink" x="0px" y="0px"
	 viewBox="0 0 512 512" style="enable-background:new 0 0 512 512;" xml:space="preserve">
<style type="text/css">
	.st0{fill:#FFFFFF;stroke:url(#SVGID_1_);stroke-width:10;stroke-miterlimit:10;}
	.st1{fill:none;}
	.st2{fill:#2671B8;}
	.st3{font-family:'Roboto-Black';}
	.st4{font-size:77.5552px;}
	.st5{fill:#B4B4B4;}
	.st6{fill:#A51E22;}
	.st7{fill:#DC2226;}
	.st8{fill:#F3F3F3;}
</style>
<linearGradient id="SVGID_1_" gradientUnits="userSpaceOnUse" x1="256" y1="493.1" x2="256" y2="18.9">
	<stop  offset="0" style="stop-color:#B7B7B7;stop-opacity:0.5"/>
	<stop  offset="1" style="stop-color:#B00404"/>
</linearGradient>
<circle class="st0" cx="256" cy="256" r="232.1"/>
<path class="st1" d="M46.1,47.3h426.5v426.5H46.1V47.3z"/>
<text transform="matrix(0.8574 0 0 1 133.4507 412.2635)" class="st2 st3 st4">Angular</text>
<path class="st5" d="M250.3,63.7L118.7,110l20.8,172.5l111,61L362,281.6l20.8-172.5L250.3,63.7z"/>
<path class="st6" d="M369.7,119.1L250,78.3v250.5l100.3-55.5L369.7,119.1L369.7,119.1z"/>
<path class="st7" d="M133.5,119.9l17.8,154.2l98.7,54.8V78.3L133.5,119.9L133.5,119.9z"/>
<path class="st8" d="M282.9,211.7L250,227.1h-34.7L199,267.9l-30.4,0.6L250,87.4L282.9,211.7L282.9,211.7z M279.8,204l-29.5-58.5
	L226,202.9h24L279.8,204L279.8,204z"/>
<path class="st5" d="M250,87.4l0.2,58.1l27.5,57.5h-27.6l-0.1,24.1h38.2l17.9,41.4l29,0.5L250,87.4L250,87.4z"/>
</svg>
