<?xml version="1.0" encoding="utf-8"?>
<!-- Generator: Adobe Illustrator 22.1.0, SVG Export Plug-In . SVG Version: 6.00 Build 0)  -->
<svg version="1.1" id="Layer_1" xmlns="http://www.w3.org/2000/svg" xmlns:xlink="http://www.w3.org/1999/xlink" x="0px" y="0px"
	 viewBox="0 0 512 512" style="enable-background:new 0 0 512 512;" xml:space="preserve">
<style type="text/css">
	.st0{fill:#FFFFFF;stroke:url(#SVGID_1_);stroke-width:10;stroke-miterlimit:10;}
	.st1{fill:#010101;}
</style>
<linearGradient id="SVGID_1_" gradientUnits="userSpaceOnUse" x1="256" y1="493.1" x2="256" y2="18.9">
	<stop  offset="0" style="stop-color:#B7B7B7;stop-opacity:0.5"/>
	<stop  offset="1" style="stop-color:#B00404"/>
</linearGradient>
<circle class="st0" cx="256" cy="256" r="232.1"/>
<path class="st1" d="M85.8,158.5c0,4-2.5,7-6.7,7c-3.5,0-6.1-3-6.1-7c0-3.9,2.8-7,6.5-7C83.3,151.5,85.8,154.6,85.8,158.5z
	 M76.1,369.1V208h6.6v161.1H76.1z M302.3,254.3c0,81.2-45.1,118.1-94.4,118.1c-50.4,0-91.2-39.9-91.2-114.8
	c0-76.8,42.2-118.1,94.8-118.1C262.9,139.5,302.3,180.1,302.3,254.3z M123.3,256c0,61.6,29.8,109.4,84.9,109.4
	c55.4,0,87.2-49.3,87.2-110.1c0-56.4-25.5-107.9-83.6-107.9S123.3,195.9,123.3,256L123.3,256z M326.6,351.6
	c11.1,7.4,30.2,14.5,46.6,14.5c31.2,0,59-21.8,59-54c0-29.8-18.5-45.4-49.9-58.8c-28.1-12-53.4-25-53.4-56.8
	c0-33.2,26.2-56.7,61.7-56.7c19.1,0,33.6,5.4,40.3,10.1l-2.7,5.8c-5.7-4-21.1-9.2-37.9-9.2c-37.6,0-54,28.4-54,49.3
	c0,28.9,22.4,38.5,51.3,52.3c33.6,16.4,51.3,30.9,51.3,62.5c0,33.9-24.2,61.4-67.1,61.4c-17.8,0-38.3-6-48.3-13.8L326.6,351.6
	L326.6,351.6z"/>
</svg>
