<?xml version="1.0" encoding="utf-8"?>
<!-- Generator: Adobe Illustrator 22.1.0, SVG Export Plug-In . SVG Version: 6.00 Build 0)  -->
<svg version="1.1" id="Layer_1" xmlns="http://www.w3.org/2000/svg" xmlns:xlink="http://www.w3.org/1999/xlink" x="0px" y="0px"
	 viewBox="0 0 512 512" style="enable-background:new 0 0 512 512;" xml:space="preserve">
<style type="text/css">
	.st0{fill:#FFFFFF;stroke:url(#SVGID_1_);stroke-width:10;stroke-miterlimit:10;}
	.st1{fill:none;}
	.st2{fill:#3BB1DC;}
	.st3{fill:#2671B8;}
	.st4{font-family:'Roboto-Black';}
	.st5{font-size:77.5552px;}
</style>
<linearGradient id="SVGID_1_" gradientUnits="userSpaceOnUse" x1="256" y1="493.1" x2="256" y2="18.9">
	<stop  offset="0" style="stop-color:#B7B7B7;stop-opacity:0.5"/>
	<stop  offset="1" style="stop-color:#B00404"/>
</linearGradient>
<circle class="st0" cx="256" cy="256" r="232.1"/>
<path class="st1" d="M46.1,47.3h426.5v426.5H46.1V47.3z"/>
<g xmlns:cc="http://creativecommons.org/ns#" xmlns:dc="http://purl.org/dc/elements/1.1/" xmlns:inkscape="http://www.inkscape.org/namespaces/inkscape" xmlns:rdf="http://www.w3.org/1999/02/22-rdf-syntax-ns#" xmlns:sodipodi="http://sodipodi.sourceforge.net/DTD/sodipodi-0.dtd" xmlns:svg="http://www.w3.org/2000/svg">
	<g>
		<path class="st2" d="M162.1,86.3h126.2c23.3,0,42,5.3,56,16s21.1,26.8,21.1,48.4c0,13.1-3.2,24.3-9.6,33.6s-15.6,16.6-27.5,21.7
			v0.7c16,3.4,28.1,11,36.4,22.7c8.2,11.8,12.4,26.5,12.4,44.2c0,10.2-1.8,19.7-5.5,28.5c-3.6,8.9-9.3,16.5-17.1,22.9
			c-7.8,6.4-17.7,11.5-29.8,15.3c-12.1,3.8-26.5,5.7-43.3,5.7H162.1V86.3z M207.6,195h74.2c10.9,0,20-3.1,27.3-9.3
			s10.9-15.1,10.9-26.8c0-13.1-3.3-22.3-9.8-27.6s-16-8-28.4-8h-74.2L207.6,195L207.6,195z M207.6,308.8H288
			c13.8,0,24.6-3.6,32.1-10.8c7.6-7.1,11.5-17.3,11.5-30.4c0-12.9-3.8-22.7-11.5-29.7s-18.3-10.3-32.1-10.3h-80.4V308.8z"/>
	</g>
</g>
<text transform="matrix(0.8574 0 0 1 114.875 412.2635)" class="st3 st4 st5">Bootstrap</text>
</svg>
