<?xml version="1.0" encoding="utf-8"?>
<!-- Generator: Adobe Illustrator 22.1.0, SVG Export Plug-In . SVG Version: 6.00 Build 0)  -->
<svg version="1.1" id="Layer_1" xmlns="http://www.w3.org/2000/svg" xmlns:xlink="http://www.w3.org/1999/xlink" x="0px" y="0px"
	 viewBox="0 0 512 512" style="enable-background:new 0 0 512 512;" xml:space="preserve">
<style type="text/css">
	.st0{fill:#FFFFFF;stroke:url(#SVGID_1_);stroke-width:10;stroke-miterlimit:10;}
	.st1{fill:#FFFFFF;}
	.st2{fill:#5C8DBC;}
	.st3{fill:#194775;}
	.st4{fill:#1B5A8F;}
</style>
<linearGradient id="SVGID_1_" gradientUnits="userSpaceOnUse" x1="256" y1="493.1" x2="256" y2="18.9">
	<stop  offset="0" style="stop-color:#B7B7B7;stop-opacity:0.5"/>
	<stop  offset="1" style="stop-color:#B00404"/>
</linearGradient>
<circle class="st0" cx="256" cy="256" r="232.1"/>
<path class="st1" d="M230.6,148.1c0,5.3-4.4,9.6-9.8,9.6c-5.4,0-9.8-4.3-9.8-9.5v-0.1c0-5.3,4.4-9.6,9.8-9.6
	C226.2,138.5,230.6,142.8,230.6,148.1L230.6,148.1z M303.6,148.1c0,5.3-4.4,9.6-9.8,9.6s-9.8-4.3-9.8-9.5v-0.1
	c0-5.3,4.4-9.6,9.8-9.6S303.6,142.8,303.6,148.1L303.6,148.1z"/>
<path class="st2" d="M406.7,194.2c0-5.7-1.2-10.7-3.7-15c-2.4-4.2-6-7.8-10.9-10.6c-40-23.1-80.1-46.1-120.1-69.2
	c-10.8-6.2-21.3-6-32,0.3c-15.9,9.4-95.8,55.1-119.5,68.9c-9.8,5.7-14.6,14.3-14.6,25.6c0,46.4,0,92.9,0,139.3
	c0,5.6,1.2,10.5,3.5,14.7c2.4,4.4,6.1,8,11,10.9c23.8,13.8,103.6,59.5,119.5,68.9c10.7,6.3,21.2,6.6,32,0.3
	c40-23.1,80.1-46.1,120.2-69.2c5-2.9,8.6-6.5,11-10.9c2.3-4.2,3.5-9.2,3.5-14.7C406.7,333.5,406.7,240.7,406.7,194.2"/>
<path class="st3" d="M256.8,263.4l-147.4,84.9c2.4,4.4,6.1,8,11,10.9c23.8,13.8,103.6,59.5,119.5,68.9c10.7,6.3,21.2,6.6,32,0.3
	c40-23.1,80.1-46.1,120.2-69.2c5-2.9,8.6-6.5,11-10.9L256.8,263.4"/>
<path class="st3" d="M213.1,288.6c8.6,15,24.7,25.1,43.2,25.1c18.6,0,34.8-10.2,43.4-25.4l-42.9-24.8L213.1,288.6"/>
<path class="st4" d="M406.7,194.2c0-5.7-1.2-10.7-3.7-15l-146.3,84.2l146.4,84.8c2.3-4.2,3.5-9.2,3.5-14.7
	C406.7,333.5,406.7,240.7,406.7,194.2"/>
<path class="st1" d="M398.7,269.5h-11.4v11.4h-11.4v-11.4h-11.4V258h11.4v-11.4h11.4V258h11.4V269.5 M356.9,269.5h-11.4v11.4H334
	v-11.4h-11.4V258H334v-11.4h11.4V258h11.4v11.5"/>
<path class="st1" d="M299.7,288.3c-8.5,15.1-24.7,25.4-43.4,25.4c-18.5,0-34.6-10.1-43.2-25.1c-4.3-7.5-6.6-16-6.6-24.7
	c0-27.5,22.3-49.7,49.7-49.7c18.4,0,34.4,10,43,24.8l43.5-25c-17.1-30-49.4-50-86.4-50c-55.2,0-99.9,44.7-99.9,99.9
	c0,18.1,4.8,35.1,13.2,49.7c17.2,30,49.6,50.2,86.7,50.2s69.6-20.3,86.8-50.4L299.7,288.3"/>
</svg>
