<?xml version="1.0" encoding="utf-8"?>
<!-- Generator: Adobe Illustrator 22.1.0, SVG Export Plug-In . SVG Version: 6.00 Build 0)  -->
<svg version="1.1" id="Capa_1" xmlns="http://www.w3.org/2000/svg" xmlns:xlink="http://www.w3.org/1999/xlink" x="0px" y="0px"
	 viewBox="0 0 512 512" style="enable-background:new 0 0 512 512;" xml:space="preserve">
<style type="text/css">
	.st0{fill:#B00404;}
</style>
<g>
	<g id="post-facebook">
		<path class="st0" d="M460.8,0H51.2C23,0,0,23,0,51.2v409.6C0,489,23,512,51.2,512h409.6c28.2,0,51.2-23,51.2-51.2V51.2
			C512,23,489,0,460.8,0z M435.2,51.2V128H384c-15.4,0-25.6,10.2-25.6,25.6v51.2h76.8v76.8h-76.8v179.2h-76.8V281.6h-51.2v-76.8
			h51.2v-64c0-48.6,41-89.6,89.6-89.6H435.2z"/>
	</g>
</g>
</svg>
