<?xml version="1.0" encoding="utf-8"?>
<!-- Generator: Adobe Illustrator 22.1.0, SVG Export Plug-In . SVG Version: 6.00 Build 0)  -->
<svg version="1.1" id="Layer_1" xmlns="http://www.w3.org/2000/svg" xmlns:xlink="http://www.w3.org/1999/xlink" x="0px" y="0px"
	 viewBox="0 0 512 512" style="enable-background:new 0 0 512 512;" xml:space="preserve">
<style type="text/css">
	.st0{fill:#FFFFFF;stroke:url(#SVGID_1_);stroke-width:10;stroke-miterlimit:10;}
	.st1{fill:none;}
	.st2{fill:#E44F26;}
	.st3{fill:#F1672A;}
	.st4{fill:#EBEBEB;}
	.st5{fill:#010101;}
	.st6{fill:#FFFFFF;}
</style>
<linearGradient id="SVGID_1_" gradientUnits="userSpaceOnUse" x1="256" y1="493.1" x2="256" y2="18.9">
	<stop  offset="0" style="stop-color:#B7B7B7;stop-opacity:0.5"/>
	<stop  offset="1" style="stop-color:#B00404"/>
</linearGradient>
<circle class="st0" cx="256" cy="256" r="232.1"/>
<path class="st1" d="M46.1,47.3h426.5v426.5H46.1V47.3z"/>
<path class="st2" d="M405,139.4L377.8,402l-122,29.2L134.1,402L107,139.4H405L405,139.4z"/>
<path class="st3" d="M256,408.9l98.6-23.6l23.2-224.4H256V408.9z"/>
<path class="st4" d="M203.2,225.3H256v-32.2h-93.5l0.9,8.6l9.2,88.8H256v-32.2h-49.4L203.2,225.3z M211.6,306.6h-37.4l5.2,50.6
	l76.4,18.3h0.2V342h-0.2l-41.5-9.7L211.6,306.6L211.6,306.6z"/>
<path class="st5" d="M134.7,68.1h19v16.2H171V68.1h19v49h-19v-16.4h-17.3V117h-19V68.1L134.7,68.1z M214.9,84.3h-16.7V68.1h52.3
	v16.2h-16.7V117h-19L214.9,84.3L214.9,84.3L214.9,84.3z M258.9,68.1h19.8l12.2,17.2L303,68.1h19.8v49h-18.9V92.8l-13,17.4h-0.3
	l-13.1-17.4V117H259V68.1H258.9z M332.2,68.1h19v32.8h26.7V117h-45.6L332.2,68.1L332.2,68.1z"/>
<path class="st6" d="M255.9,290.5h45.9l-4.3,41.8l-41.6,9.7v33.5l76.5-18.3l0.6-5.4l8.8-84.8l0.9-8.6H256L255.9,290.5L255.9,290.5z
	 M255.9,225.2L255.9,225.2l90.1,0.1l0.7-7.2l1.7-16.3l0.9-8.6h-93.4L255.9,225.2L255.9,225.2z"/>
</svg>
