<?xml version="1.0" encoding="utf-8"?>
<!-- Generator: Adobe Illustrator 22.1.0, SVG Export Plug-In . SVG Version: 6.00 Build 0)  -->
<svg version="1.1" id="Layer_1" xmlns="http://www.w3.org/2000/svg" xmlns:xlink="http://www.w3.org/1999/xlink" x="0px" y="0px"
	 viewBox="0 0 512 512" style="enable-background:new 0 0 512 512;" xml:space="preserve">
<style type="text/css">
	.st0{fill:#FFFFFF;stroke:url(#SVGID_1_);stroke-width:10;stroke-miterlimit:10;}
	.st1{fill:#2671B8;}
	.st2{font-family:'Roboto-Black';}
	.st3{font-size:72.0471px;}
	.st4{fill:url(#SVGID_2_);}
	.st5{fill:#F57F22;}
</style>
<linearGradient id="SVGID_1_" gradientUnits="userSpaceOnUse" x1="256" y1="493.1" x2="256" y2="18.9">
	<stop  offset="0" style="stop-color:#B7B7B7;stop-opacity:0.5"/>
	<stop  offset="1" style="stop-color:#B00404"/>
</linearGradient>
<circle class="st0" cx="256" cy="256" r="232.1"/>
<text transform="matrix(0.8684 0 0 1 125.9795 399.327)" class="st1 st2 st3">Illustrator</text>
<radialGradient id="SVGID_2_" cx="-223.9459" cy="492.6781" r="6.135574e-02" gradientTransform="matrix(2291.6716 0 0 2218.7549 513442.9375 -1092969.25)" gradientUnits="userSpaceOnUse">
	<stop  offset="0" style="stop-color:#433426;stop-opacity:0.98"/>
	<stop  offset="1" style="stop-color:#1F110A"/>
</radialGradient>
<path class="st4" d="M171.5,122.2h185v180h-185V122.2z"/>
<path class="st5" d="M171.5,122.2h185v180h-185V122.2z M163.1,310.5h201.8V113.8H163.1V310.5z M295.3,183.9c0-0.7,0.3-1,1-1h13.2
	c0.7,0,1,0.3,1,1v66.4c0,0.7-0.2,1-1,1h-13c-0.8,0-1.1-0.4-1.1-1.1L295.3,183.9L295.3,183.9L295.3,183.9z M294.4,164.8
	c0-5.4,3.8-8.6,8.6-8.6c5.1,0,8.6,3.4,8.6,8.6c0,5.6-3.6,8.6-8.7,8.6C297.9,173.4,294.4,170.3,294.4,164.8z M256.5,211.6
	c-2.4-9.3-7.9-29.7-10-39.5h-0.2c-1.8,9.8-6.2,26.5-9.8,39.5H256.5z M233.1,225.2l-6.6,25.2c-0.2,0.7-0.4,0.8-1.3,0.8h-12.4
	c-0.8,0-1-0.3-0.8-1.3l23.9-83.6c0.4-1.5,0.7-2.9,0.8-7c0-0.6,0.3-0.8,0.7-0.8h17.7c0.6,0,0.8,0.2,1,0.8l26.7,90.7
	c0.2,0.7,0,1.1-0.7,1.1h-14c-0.7,0-1.1-0.2-1.3-0.8l-6.9-25.3h-26.8V225.2z"/>
</svg>
