<?xml version="1.0" encoding="utf-8"?>
<!-- Generator: Adobe Illustrator 22.1.0, SVG Export Plug-In . SVG Version: 6.00 Build 0)  -->
<svg version="1.1" id="Layer_1" xmlns="http://www.w3.org/2000/svg" xmlns:xlink="http://www.w3.org/1999/xlink" x="0px" y="0px"
	 viewBox="0 0 512 512" style="enable-background:new 0 0 512 512;" xml:space="preserve">
<style type="text/css">
	.st0{fill:#FFFFFF;stroke:url(#SVGID_1_);stroke-width:10;stroke-miterlimit:10;}
	.st1{fill:#2671B8;}
	.st2{font-family:'Roboto-Black';}
	.st3{font-size:94.8699px;}
	.st4{fill:#5482A2;}
	.st5{fill:#E67125;}
</style>
<linearGradient id="SVGID_1_" gradientUnits="userSpaceOnUse" x1="256" y1="493.1" x2="256" y2="18.9">
	<stop  offset="0" style="stop-color:#B7B7B7;stop-opacity:0.5"/>
	<stop  offset="1" style="stop-color:#B00404"/>
</linearGradient>
<circle class="st0" cx="256" cy="256" r="232.1"/>
<text transform="matrix(0.9893 0 0 1 163.5249 418.8514)" class="st1 st2 st3">Java</text>
<path class="st4" d="M220,270.4c0,0-10.2,5.9,7.3,7.9c21.1,2.4,31.9,2.1,55.2-2.3c0,0,6.1,3.8,14.7,7.2
	C244.9,305.5,179,281.9,220,270.4 M213.6,241.2c0,0-11.4,8.5,6,10.3c22.6,2.3,40.4,2.5,71.2-3.4c0,0,4.3,4.3,11,6.7
	C238.7,273.2,168.5,256.2,213.6,241.2"/>
<path class="st5" d="M267.4,191.7c12.9,14.8-3.4,28.1-3.4,28.1s32.7-16.9,17.7-38c-14-19.7-24.7-29.5,33.4-63.2
	C315.1,118.7,223.8,141.5,267.4,191.7"/>
<path class="st4" d="M336.4,292c0,0,7.5,6.2-8.3,11c-30.1,9.1-125.4,11.9-151.8,0.4c-9.5-4.1,8.3-9.9,13.9-11.1c5.9-1.3,9.2-1,9.2-1
	c-10.6-7.5-68.4,14.6-29.4,21C276.4,329.5,364,304.4,336.4,292 M224.9,211c0,0-48.5,11.5-17.2,15.7c13.2,1.8,39.6,1.4,64.1-0.7
	c20.1-1.7,40.2-5.3,40.2-5.3s-7.1,3-12.2,6.5c-49.2,12.9-144.3,6.9-116.9-6.3C206.1,209.7,224.9,211,224.9,211 M311.8,259.6
	c50-26,26.9-51,10.8-47.6c-4,0.8-5.7,1.5-5.7,1.5s1.5-2.3,4.3-3.3c31.9-11.2,56.5,33.1-10.3,50.7
	C310.8,260.9,311.6,260.2,311.8,259.6"/>
<path class="st5" d="M281.7,64.2c0,0,27.7,27.7-26.3,70.3c-43.3,34.2-9.9,53.7,0,75.9c-25.3-22.8-43.8-42.9-31.4-61.5
	C242.3,121.5,292.8,108.2,281.7,64.2"/>
<path class="st4" d="M229.8,330c48,3.1,121.7-1.7,123.5-24.4c0,0-3.4,8.6-39.7,15.5c-41,7.7-91.5,6.8-121.5,1.9
	C192.1,322.9,198.3,328,229.8,330"/>
</svg>
