<?xml version="1.0" encoding="utf-8"?>
<!-- Generator: Adobe Illustrator 22.1.0, SVG Export Plug-In . SVG Version: 6.00 Build 0)  -->
<svg version="1.1" id="Layer_1" xmlns="http://www.w3.org/2000/svg" xmlns:xlink="http://www.w3.org/1999/xlink" x="0px" y="0px"
	 viewBox="0 0 512 512" style="enable-background:new 0 0 512 512;" xml:space="preserve">
<style type="text/css">
	.st0{fill:#FFFFFF;stroke:url(#SVGID_1_);stroke-width:10;stroke-miterlimit:10;}
	.st1{fill:#131B28;}
	.st2{fill:#086AAD;}
</style>
<linearGradient id="SVGID_1_" gradientUnits="userSpaceOnUse" x1="256" y1="493.1" x2="256" y2="18.9">
	<stop  offset="0" style="stop-color:#B7B7B7;stop-opacity:0.5"/>
	<stop  offset="1" style="stop-color:#B00404"/>
</linearGradient>
<circle class="st0" cx="256" cy="256" r="232.1"/>
<path class="st1" d="M226.2,240.7L226.2,240.7l-2.6,9.1L226.2,240.7z M239.4,260.4h-2.8H239.4z M238.7,274L238.7,274l-16.9,0.1
	L238.7,274z M242.2,260.4h-2.8H242.2z M240.2,272.8l3-11.3L240.2,272.8L240.2,272.8z M302.6,221l-5.5,25.9
	C297.1,246.8,302.6,221,302.6,221z M288.4,221l-4.2,19.3L288.4,221L288.4,221z"/>
<path class="st1" d="M301.6,219.8h-11.8c-0.7,0-1.3,0.5-1.4,1.2l-4.2,19.3l-4.2,19.3c-0.1,0.6-0.8,1.2-1.4,1.2h-8.3
	c-8.2,0-7.3-5.7-5.6-13.5l0.1-0.2l0.2-1v-0.2l0.4-2l0.4-2.1c0.1-0.6,0.3-1.6,0.4-2.2l1.9-9.3l1.9-9.3c0.1-0.6-0.3-1.2-0.9-1.2H257
	c-0.7,0-1.3,0.5-1.4,1.2l-2.6,12.3l-2.6,12.3l0,0l-0.2,1.1c-3,13.6-2.2,26.7,14.1,27.1c0.3,0,0.5,0,0.5,0h25.5
	c0.7,0,1.3-0.5,1.4-1.2l5.5-25.9l5.5-25.9C302.7,220.4,302.3,219.8,301.6,219.8L301.6,219.8z M348.5,260.9c0.7,0,1.1,0.5,0.9,1.2
	l-1.1,5.6 M347.2,273.2l1.1-5.6L347.2,273.2L347.2,273.2z M345.8,274.4L345.8,274.4c-3.5,0-13.9,0.1-21.7,0.1
	C333.6,274.5,345.8,274.4,345.8,274.4z M317.1,253.7c0-0.6,0.7-1.7,1.3-1.7h-1.5C316.3,258.7,317.1,253.7,317.1,253.7z"/>
<path class="st1" d="M325.2,274.5c-0.1,0-0.2,0-0.2,0S325.1,274.5,325.2,274.5z M348.5,260.9c0.7,0,1.1,0.5,0.9,1.2l-1.1,5.6
	l-0.2,0.9 M330.7,274.5L330.7,274.5L330.7,274.5z M327.8,274.5h-0.2H327.8z M327,274.5c-0.1,0-0.2,0-0.3,0
	C326.8,274.5,326.9,274.5,327,274.5z M326.1,274.5h-0.2H326.1z M327.7,274.5H327H327.7z M330.7,274.5c-1,0-1.9,0-2.8,0
	C328.8,274.5,329.7,274.5,330.7,274.5z M347.2,273.2l1-4.7L347.2,273.2L347.2,273.2z M326.7,274.5h-0.6H326.7z M324.9,274.5h-0.8
	H324.9z M325.8,274.5h-0.7H325.8z M153.8,253.9l1.8-8.1l-2.1,9.3l-2,9.4l1.8-8.3C153.4,255.5,153.6,254.5,153.8,253.9L153.8,253.9z
	 M175.7,219.7h-12.9c-0.7,0-1.3,0.5-1.5,1.2l-1.2,5.4l-1.2,5.4c-0.1,0.6,0.3,1.2,0.9,1.2h13c0.7,0,1.3-0.5,1.4-1.2l1.2-5.4l1.2-5.4
	l0,0C176.7,220.2,176.3,219.7,175.7,219.7L175.7,219.7z M172.8,237.7L172.8,237.7l-3.8,17.5L172.8,237.7L172.8,237.7z M135.3,295.7
	c0,0,6.5,0.1,10.6,0.1C142.8,295.8,137.6,295.8,135.3,295.7L135.3,295.7z M157.4,237.7l-1.8,8.1L157.4,237.7z"/>
<path class="st1" d="M171.9,236.5h-13c-0.7,0-1.3,0.5-1.4,1.2l-1.8,8.1l-1.8,8.1c-0.1,0.6-0.4,1.7-0.5,2.3l-1.8,8.3l-1.8,8.3
	c-0.2,0.8-0.4,1.5-0.6,2.3c0,0-2.4,7.2-6.5,7.2c-0.2,0-0.3,0-0.5,0c-2,0-3.5-0.1-3.5-0.1l0,0c-0.7,0-1.3,0.5-1.5,1.1l-1.4,5.7
	l-1.3,5.7c-0.2,0.6,0.3,1.2,0.9,1.2c2.3,0,7.5,0.1,10.7,0.1c10.2,0,15.6-5.7,19-21.9l4-18.7l3.8-17.5
	C173,237,172.6,236.5,171.9,236.5L171.9,236.5z M356.8,273.9c-0.7,0-1.1-0.5-0.9-1.2l9.8-45.9 M370.4,272.7l4-19.6L370.4,272.7z"/>
<path class="st1" d="M356,273.3c-0.1-0.3,0-1.1,0.1-1.7l4.6-21.8l-4.9,22.9c-0.1,0.6,0.3,1.2,0.9,1.2h1.2
	C357.4,273.9,356.1,273.6,356,273.3L356,273.3z M369.7,273.6c-0.4,0.1-1.2,0.3-1.8,0.3h1.2c0.7,0,1.3-0.5,1.4-1.2l0.2-1.2
	C370.5,272.2,370,273.5,369.7,273.6L369.7,273.6z M372.4,262.9l1.7-8.6l0,0L372.4,262.9z M411,229.9l0.5,2.2
	c0.1,0.6-0.3,1.2-0.9,1.2 M370.7,271.5l1.7-8.6L370.7,271.5z M410.5,227.6l0.5,2.3L410.5,227.6z M374.2,254.3
	c0.1-0.6,0.3-1.7,0.5-2.3l1.9-8.7l-2.1,9.9L374.2,254.3L374.2,254.3z M365.8,226.1c-0.1,0.6-0.3,1.4-0.4,1.9l-4.6,21.8l4.9-22.9
	L365.8,226.1z"/>
<path class="st1" d="M411.6,232.1l-0.5-2.2l-0.5-2.3l-0.3-1.2c-1.1-4.1-4.2-6.5-10.9-6.5h-10.5h-9.7h-10.9c-0.7,0-1.3,0.5-1.4,1.2
	l0,0l-0.5,2.3l-0.6,2.7l-0.2,0.8l-4.9,22.9l-4.6,21.8c-0.1,0.6-0.2,1.4-0.1,1.7c0.1,0.3,1.3,0.6,2,0.6h9.8c0.7,0,1.5-0.1,1.8-0.3
	c0.4-0.1,0.9-1.4,1-2.1l1.7-8.6l1.7-8.6l0,0l0.2-1.1l2.1-9.9l1.9-8.8c0.1-0.6,0.8-1.2,1.4-1.2h30.9
	C411.3,233.3,411.7,232.8,411.6,232.1L411.6,232.1z"/>
<path class="st1" d="M451.3,212c-0.7,0-1.7,0-2.4,0H439c-0.7,0-1.5,0.4-1.9,1l-21.8,32c-0.4,0.5-0.8,0.5-0.9-0.2l-1.6-7.1
	c-0.1-0.6-0.8-1.2-1.5-1.2h-14c-0.7,0-1,0.5-0.9,1.1l6.3,22c0.2,0.6,0.2,1.7,0,2.3l-2.7,10.7c-0.2,0.6,0.2,1.2,0.9,1.2h13.9
	c0.7,0,1.3-0.5,1.5-1.2l2.7-10.7c0.2-0.6,0.6-1.6,1-2.1l35.5-47.1c0.4-0.5,0.2-0.9-0.5-0.9L451.3,212L451.3,212z M339.7,239.6
	L339.7,239.6c-0.1,0.7-0.7,1.2-1.4,1.2h-17.8c-0.6,0-0.9-0.4-0.8-0.9l0,0l0,0c0,0,0,0,0-0.1l0.1-0.3c1.7-4.5,5.2-7.5,11.7-7.5
	C338.8,232,340.2,235.6,339.7,239.6L339.7,239.6z M334.5,219c-22.9,0-28.3,13.9-31.3,27.9c-3,14.3-2.8,27.6,20.9,27.6h0.8
	c0.1,0,0.2,0,0.2,0h1.5c0.1,0,0.2,0,0.3,0h0.7h0.2c0.9,0,1.9,0,2.8,0l0,0c6.2,0,12.5-0.1,15-0.1c0.6,0,1.3-0.5,1.4-1.2l1-4.7
	l0.2-0.9l1.1-5.6c0.1-0.6-0.3-1.2-0.9-1.2h-21.3c-8.5,0-11-2.2-10-8.9h34l0,0l0,0c0.5,0,1-0.4,1.2-0.9c0-0.1,0.1-0.2,0.1-0.3l0,0
	C357.6,231.9,356.1,219,334.5,219L334.5,219L334.5,219z M226.5,239.5l-0.3,1.1l0,0l-2.6,9.1l-2.6,9.1c-0.2,0.6-0.9,1.1-1.5,1.1H206
	c-10.3,0-12.8-8.1-10.3-19.9c2.5-12.2,7.4-19.7,17.6-20.5C227.1,218.5,229.9,228.3,226.5,239.5L226.5,239.5z M235.8,259.3
	c0,0,6.4-15.5,7.9-24.5c2-12-4-29.5-27.3-29.5c-23.1,0-33.2,16.6-37,34.7c-3.8,18.2,1.2,34.2,24.2,34.1l18.1-0.1l16.9-0.1
	c0.7,0,1.3-0.5,1.5-1.2l3-11.3c0.2-0.6-0.2-1.2-0.9-1.2h-2.8h-2.8C236,260.2,235.7,259.8,235.8,259.3
	C235.8,259.5,235.8,259.4,235.8,259.3L235.8,259.3L235.8,259.3z"/>
<path class="st1" d="M350.3,248.9c0,0.4-0.3,0.8-0.8,0.8c-0.4,0-0.8-0.3-0.8-0.8s0.3-0.8,0.8-0.8
	C349.9,248.1,350.3,248.4,350.3,248.9z"/>
<path class="st2" d="M59.3,228.7c-6.4,9.2-5.6,21.1-0.7,30.9c0.1,0.2,0.2,0.5,0.4,0.7c0.1,0.1,0.1,0.3,0.2,0.4
	c0,0.1,0.1,0.2,0.1,0.3c0.1,0.2,0.2,0.3,0.3,0.5c0.2,0.3,0.3,0.5,0.5,0.8c0.1,0.1,0.2,0.3,0.3,0.4c0.2,0.3,0.4,0.6,0.5,0.8
	c0.1,0.1,0.2,0.2,0.2,0.4c0.3,0.4,0.5,0.8,0.8,1.1l0,0c0,0.1,0.1,0.1,0.1,0.2c0.2,0.3,0.5,0.6,0.7,0.9c0.1,0.1,0.2,0.2,0.3,0.3
	c0.3,0.4,0.6,0.7,0.9,1.1c0.3,0.4,0.6,0.7,0.9,1.1l0,0c0.6,0.7,1.3,1.4,2,2c0.1,0.1,0.2,0.2,0.3,0.3c0.3,0.3,0.7,0.6,1,0.9
	c0.1,0.1,0.1,0.1,0.2,0.2c0.3,0.3,0.6,0.5,0.9,0.8c0.1,0.1,0.3,0.2,0.4,0.3c0.3,0.2,0.5,0.4,0.8,0.6l0.4,0.3
	c0.3,0.2,0.6,0.4,0.9,0.6c0.1,0.1,0.2,0.2,0.3,0.2c0,0,0.1,0,0.1,0.1c0.3,0.2,0.6,0.4,0.8,0.6c0.1,0.1,0.2,0.2,0.4,0.2
	c0.4,0.3,0.9,0.5,1.3,0.8c0.1,0.1,0.2,0.1,0.4,0.2c0.3,0.2,0.7,0.4,1,0.6c0.2,0.1,0.4,0.2,0.5,0.3c0.2,0.1,0.5,0.2,0.7,0.4
	c0.1,0,0.1,0.1,0.2,0.1s0.2,0.1,0.3,0.1c0.5,0.2,0.9,0.4,1.4,0.6c0.4,0.2,0.9,0.4,1.3,0.5c0.1,0,0.2,0.1,0.3,0.1
	c0.5,0.2,0.9,0.3,1.4,0.5s0.9,0.3,1.4,0.5c0.1,0,0.2,0.1,0.3,0.1c0.5,0.1,0.9,0.3,1.4,0.4c30.9,5.6,39.8-18.6,39.8-18.6
	c-7.5,9.8-20.9,12.4-33.6,9.5c-0.5-0.1-0.9-0.3-1.4-0.4c-0.6-0.2-1.1-0.4-1.7-0.5l-0.2-0.1c-0.4-0.1-0.8-0.3-1.2-0.4
	c-0.1,0-0.2-0.1-0.3-0.1c-0.4-0.2-0.9-0.4-1.3-0.5c-0.1,0-0.2-0.1-0.3-0.1c-0.5-0.2-0.9-0.4-1.4-0.7c-0.3-0.1-0.6-0.3-0.8-0.4
	c-0.2-0.1-0.4-0.2-0.6-0.3c-0.3-0.2-0.7-0.4-1-0.6c-0.1-0.1-0.2-0.1-0.3-0.2c-0.4-0.3-0.9-0.5-1.3-0.8c-0.1-0.1-0.2-0.2-0.4-0.2
	c-0.3-0.2-0.6-0.4-0.9-0.6c-0.1-0.1-0.2-0.1-0.3-0.2c-0.3-0.2-0.6-0.4-0.9-0.6c-0.1-0.1-0.3-0.2-0.4-0.3c-0.4-0.3-0.8-0.6-1.2-0.9
	c-0.3-0.3-0.7-0.6-1-0.8l-0.1-0.1c-0.4-0.3-0.7-0.6-1-1c-0.1-0.1-0.2-0.2-0.3-0.3c-0.3-0.2-0.5-0.5-0.8-0.7
	c-0.1-0.1-0.2-0.2-0.3-0.3c-0.3-0.3-0.6-0.6-0.9-1l0,0c-0.3-0.3-0.6-0.7-0.9-1.1c-0.1-0.1-0.2-0.2-0.2-0.3c-0.2-0.3-0.5-0.6-0.7-0.8
	c-0.1-0.1-0.2-0.2-0.2-0.3c-0.3-0.3-0.5-0.7-0.8-1c-7-9.6-9.6-22.8-3.9-33.7"/>
<path class="st2" d="M79.1,220.9c-4.6,6.6-4.4,15.5-0.8,22.6c0.6,1.2,1.3,2.3,2,3.4c0.7,1,1.5,2.2,2.4,3c0.3,0.4,0.7,0.7,1,1.1
	c0.1,0.1,0.2,0.2,0.3,0.3c0.3,0.3,0.7,0.7,1.1,1l0,0l0,0c0.4,0.4,0.8,0.7,1.2,1c0.1,0.1,0.2,0.1,0.3,0.2c0.4,0.3,0.9,0.6,1.3,0.9
	l0,0c0.2,0.1,0.4,0.3,0.6,0.4c0.1,0.1,0.2,0.1,0.3,0.2c0.3,0.2,0.6,0.4,1,0.6l0.1,0.1c0.3,0.2,0.6,0.3,0.8,0.5
	c0.1,0.1,0.2,0.1,0.3,0.2c0.2,0.1,0.4,0.2,0.6,0.3h0.1c0.4,0.2,0.8,0.4,1.2,0.6c0.1,0,0.2,0.1,0.3,0.1c0.3,0.1,0.7,0.3,1,0.4
	c0.1,0.1,0.3,0.1,0.4,0.2c0.3,0.1,0.6,0.2,0.9,0.3c0.1,0,0.3,0.1,0.4,0.1c0.4,0.1,0.9,0.3,1.3,0.4c23.8,3.9,29.3-14.4,29.3-14.4
	c-5,7.1-14.6,10.6-24.8,7.9c-0.6-0.2-1.2-0.3-1.8-0.5c-0.5-0.1-0.9-0.3-1.4-0.5c-0.3-0.1-0.7-0.3-1-0.4c-0.1,0-0.2-0.1-0.3-0.1
	c-0.4-0.2-0.8-0.4-1.2-0.6c-0.2-0.1-0.4-0.2-0.6-0.3l-0.4-0.2c-0.3-0.1-0.5-0.3-0.8-0.4c-0.1,0-0.1-0.1-0.2-0.1
	c-0.3-0.2-0.6-0.4-1-0.6c-0.1-0.1-0.2-0.1-0.3-0.2c-0.2-0.1-0.4-0.3-0.6-0.4c-0.4-0.3-0.9-0.6-1.3-0.9c-0.1-0.1-0.2-0.2-0.3-0.2
	c-4.5-3.5-8-8.4-9.7-13.9c-1.8-5.7-1.4-12.1,1.7-17.3"/>
<path class="st2" d="M95.8,215.2c-2.7,4-3,9-1.1,13.4c2,4.7,6.1,8.4,10.8,10.1c0.2,0.1,0.4,0.1,0.6,0.2c0.1,0,0.2,0.1,0.3,0.1
	c0.3,0.1,0.6,0.2,0.8,0.2c13.2,2.5,16.7-6.8,17.7-8.1c-3.1,4.5-8.4,5.6-14.8,4c-0.5-0.1-1-0.3-1.6-0.5s-1.2-0.5-1.9-0.8
	c-1.1-0.6-2.2-1.2-3.2-2c-5.8-4.4-9.4-12.7-5.6-19.5 M244,293.2l-3.8,8.6H236l0.3-7.9l-3.1,7.9h-4.1l-0.1-8.6l0.4-2.1h2.9l-0.6,8.5
	l3.2-8.5h4l-0.3,8.6l3.2-8.6h2.5L244,293.2z M250.6,295.7c0.4-1.7,0.3-2-0.6-2h-1.3l-0.8,4l-1.3,4.1h-2.4l2-9.4l0.3-1.4h2.2l0.3,0.6
	c0,0,1.3-0.8,2.6-0.8c2.7,0,2.5,2,1.9,4.8L250.6,295.7z M258.6,289.7c-1.1,0-1.8-0.3-1.5-1.6c0.3-1.3,1.1-1.6,2.2-1.6
	s1.8,0.3,1.5,1.6C260.5,289.3,259.6,289.7,258.6,289.7L258.6,289.7z M257.4,301.8H255l0.5-4.2l0.8-3.9l-1.7-0.4l0.5-2.3h4.6
	L257.4,301.8L257.4,301.8z M267.9,293.3l-3,0.4l-0.9,4.1c-0.2,1.1-0.2,1.4,0.8,1.4h2l-0.4,2.2c0,0-1.8,0.6-2.6,0.6
	c-3.1,0-3.1-1.7-2.5-4.3l0.8-4l-1.7-0.4l0.5-2.3h1.8l1-2.7h2.4l-0.6,2.7h3L267.9,293.3L267.9,293.3z M274.2,293.5
	c-1.4,0-2.2,0.7-2.4,2.1l4.1-0.3C276,294.3,275.8,293.5,274.2,293.5z M271.4,297.5c-0.2,1.3,0.3,1.8,2,1.8h4.2l-0.4,2
	c0,0-2.6,0.7-4.5,0.7c-4.7,0-4.8-2.7-4.2-5.5c0.6-2.8,1.7-5.6,6.2-5.6c4.4,0,4.6,2.7,3.5,6.6H271.4L271.4,297.5z M288,301.8h-2.4
	l0.5-4.2l1.7-8l-1.7-0.4l0.5-2.3h4.6L288,301.8L288,301.8z M296.8,293.5c-1.4,0-2.2,0.7-2.5,2.1l4.1-0.3
	C298.6,294.3,298.4,293.5,296.8,293.5z M293.9,297.5c-0.2,1.3,0.3,1.8,2,1.8h4.2l-0.4,2c0,0-2.6,0.7-4.5,0.7c-4.7,0-4.8-2.7-4.2-5.5
	c0.6-2.8,1.7-5.6,6.2-5.6c4.4,0,4.6,2.7,3.5,6.6H293.9L293.9,297.5z M312,293.6c0,0-3.1,0-3.9,0c-1.8,0-2,0.6-2.1,1.1l-0.1,0.5
	l5.7,0.4c0,0,0,1.8-0.2,2.8c-0.3,1.7-2.1,3.5-5.3,3.5c-1.6,0-4.1-0.6-4.1-0.6l0.4-2.1h3.9c1.7,0,2-0.5,2.1-0.9l0.1-0.7l-5.6-0.4
	c0,0-0.2-1.4,0.1-2.8c0.4-1.9,2.2-3.5,5.3-3.5c1.6,0,4.1,0.6,4.1,0.6L312,293.6L312,293.6z M322.6,293.6c0,0-3.1,0-3.9,0
	c-1.8,0-2,0.6-2.1,1.1l-0.1,0.5l5.7,0.4c0,0,0,1.8-0.2,2.8c-0.3,1.7-2.1,3.5-5.3,3.5c-1.6,0-4.1-0.6-4.1-0.6l0.4-2.1h3.9
	c1.7,0,2-0.5,2.1-0.9l0.1-0.7l-5.6-0.4c0,0-0.2-1.4,0.1-2.8c0.4-1.9,2.2-3.5,5.3-3.5c1.6,0,4.1,0.6,4.1,0.6L322.6,293.6L322.6,293.6
	z M325.9,303.5h-2.1l0.1-1.6c-0.8,0-1.2-0.6-1-1.5c0.3-1.3,1.1-1.6,2.2-1.6s1.8,0.3,1.5,1.6L325.9,303.5z M340,293.7
	c-1.6,0-2.1,0.9-2.5,2.7c-0.4,1.7-0.3,2.8,1.3,2.8h2.2l1.2-5.5H340z M343.6,300.4l-0.3,1.4h-2.2l-0.3-0.7c0,0-2,0.8-3.3,0.8
	c-3.4,0-3.5-2.8-2.9-5.6c0.6-2.8,1.9-5.5,5.3-5.5c1.2,0,2.8,0.6,2.8,0.6l1.3-4.6h2.4L343.6,300.4L343.6,300.4z M352.3,293.6
	c-2.1,0-2.7,1.2-3.1,2.8c-0.3,1.7-0.2,2.9,1.8,2.9c2.1,0,2.7-1.1,3.1-2.9C354.6,294.8,354.5,293.6,352.3,293.6L352.3,293.6z
	 M350.6,302c-4.3,0-4.7-2.7-4.1-5.5s2.1-5.5,6.5-5.5c4.3,0,4.7,2.7,4.1,5.5C356.4,299.3,354.9,302,350.6,302L350.6,302z
	 M375.2,301.8l0.5-4.2l0.2-1.2c0.3-1.6,0.6-2.7-1.1-2.7h-1.3c0.1,0.8-0.1,1.7-0.3,2.7l-1.1,5.4h-2.4l0.5-4.2l0.2-1.2
	c0.3-1.6,0.6-2.7-1.1-2.7h-1.1l-1.7,8.1h-2.8L366,291h2.2l0.3,0.7c0,0,1.5-0.8,2.7-0.8c0.9,0,1.6,0.4,1.8,0.9c0.5-0.3,2-0.9,3.1-0.9
	c3.4,0,3.3,2.7,2.7,5.5l-1.1,5.4L375.2,301.8L375.2,301.8L375.2,301.8z M386.4,293.6c-2.1,0-2.7,1.2-3.1,2.8
	c-0.3,1.7-0.2,2.9,1.8,2.9c2.1,0,2.7-1.1,3.1-2.9C388.7,294.8,388.5,293.6,386.4,293.6L386.4,293.6z M384.6,302
	c-4.3,0-4.7-2.7-4.1-5.5s2.1-5.5,6.5-5.5c4.3,0,4.7,2.7,4.1,5.5S389,302,384.6,302z M398.4,295.7c0.4-1.7,0.3-2-0.6-2h-1.3l-0.8,4
	l-1.3,4.1H392l2-9.4l0.3-1.4h2.2l0.3,0.6c0,0,1.3-0.8,2.6-0.8c2.7,0,2.5,2,1.9,4.8L398.4,295.7L398.4,295.7z M407.9,293.5
	c-1.4,0-2.2,0.7-2.4,2.1l4.1-0.3C409.6,294.3,409.5,293.5,407.9,293.5L407.9,293.5z M405,297.5c-0.2,1.3,0.3,1.8,2,1.8h4.2l-0.4,2
	c0,0-2.6,0.7-4.5,0.7c-4.7,0-4.8-2.7-4.2-5.5c0.6-2.8,1.7-5.6,6.2-5.6c4.4,0,4.6,2.7,3.5,6.6H405L405,297.5z M414.4,302
	c-1.1,0-1.8-0.3-1.5-1.6c0.3-1.3,1.1-1.6,2.2-1.6c1,0,1.7,0.3,1.5,1.6C416.2,301.6,415.4,302,414.4,302z"/>
</svg>
