<?xml version="1.0" encoding="utf-8"?>
<!-- Generator: Adobe Illustrator 22.1.0, SVG Export Plug-In . SVG Version: 6.00 Build 0)  -->
<svg version="1.1" id="Layer_1" xmlns="http://www.w3.org/2000/svg" xmlns:xlink="http://www.w3.org/1999/xlink" x="0px" y="0px"
	 viewBox="0 0 512 512" style="enable-background:new 0 0 512 512;" xml:space="preserve">
<style type="text/css">
	.st0{fill:#FFFFFF;stroke:url(#SVGID_1_);stroke-width:10;stroke-miterlimit:10;}
	.st1{fill:#716E6F;}
	.st2{fill:#F05423;}
	.st3{fill:#84C441;}
	.st4{fill:#2DABE2;}
	.st5{fill:#F9BC15;}
</style>
<linearGradient id="SVGID_1_" gradientUnits="userSpaceOnUse" x1="256" y1="493.1" x2="256" y2="18.9">
	<stop  offset="0" style="stop-color:#B7B7B7;stop-opacity:0.5"/>
	<stop  offset="1" style="stop-color:#B00404"/>
</linearGradient>
<circle class="st0" cx="256" cy="256" r="232.1"/>
<path class="st1" d="M455.2,245.5v-7.1h-8.8v-11l-0.3,0.1l-8.3,2.5h-0.2v8.4h-13.1v-4.7c0-2.2,0.5-3.8,1.4-4.9
	c0.9-1.1,2.3-1.6,4-1.6c1.2,0,2.5,0.3,3.8,0.9l0.3,0.1v-7.5l-0.2-0.1c-1.2-0.4-2.9-0.7-4.9-0.7c-2.6,0-4.9,0.6-6.9,1.7
	c-2,1.1-3.6,2.7-4.8,4.7c-1.1,2-1.7,4.3-1.7,6.9v5.1h-6.1v7.1h6.1v29.9h8.8v-29.9h13.1v19c0,7.8,3.7,11.8,11,11.8
	c1.2,0,2.5-0.1,3.7-0.4c1.3-0.3,2.2-0.6,2.7-0.9l0.1-0.1v-7.2l-0.4,0.2c-0.5,0.3-1.1,0.6-1.8,0.8c-0.7,0.2-1.3,0.3-1.7,0.3
	c-1.7,0-3-0.5-3.8-1.4s-1.2-2.5-1.2-4.8v-17.5h9.2V245.5z M390,269.1c-3.2,0-5.7-1.1-7.5-3.1c-1.8-2.1-2.7-5.1-2.7-8.9
	c0-3.9,0.9-7,2.7-9.1c1.8-2.1,4.3-3.2,7.4-3.2s5.5,1,7.2,3.1c1.8,2,2.6,5.1,2.6,9.1s-0.8,7.1-2.5,9.2
	C395.6,268,393.2,269.1,390,269.1 M390.4,237.5c-6.1,0-10.9,1.8-14.4,5.3s-5.2,8.4-5.2,14.5c0,5.8,1.7,10.5,5.1,13.8
	c3.4,3.4,8,5.1,13.6,5.1c5.9,0,10.7-1.8,14.1-5.4c3.5-3.6,5.2-8.4,5.2-14.4c0-5.9-1.6-10.6-4.9-14
	C400.7,239.2,396.1,237.5,390.4,237.5 M356.6,237.5c-4.2,0-7.6,1.1-10.2,3.2c-2.6,2.1-4,4.9-4,8.2c0,1.7,0.3,3.3,0.9,4.6
	s1.5,2.5,2.6,3.4c1.2,1,3,2,5.4,3c2,0.8,3.5,1.5,4.5,2.1c0.9,0.5,1.6,1.1,2,1.6s0.5,1.2,0.5,2.1c0,2.5-1.9,3.7-5.7,3.7
	c-1.4,0-3-0.3-4.8-0.9s-3.4-1.4-4.9-2.5l-0.4-0.3v8.5l0.1,0.1c1.2,0.6,2.8,1.1,4.7,1.4c1.8,0.4,3.5,0.6,5,0.6
	c4.5,0,8.1-1.1,10.8-3.2c2.7-2.1,4-4.9,4-8.4c0-2.5-0.7-4.6-2.2-6.4c-1.4-1.7-3.9-3.3-7.3-4.7c-2.7-1.1-4.5-2-5.2-2.7
	s-1.1-1.6-1.1-2.9c0-1.1,0.4-1.9,1.3-2.6c0.9-0.7,2.2-1.1,3.7-1.1s3,0.2,4.5,0.7s2.8,1.1,3.9,1.8l0.4,0.2v-8l-0.1-0.1
	c-1-0.4-2.3-0.8-4-1.1C359.3,237.7,357.8,237.5,356.6,237.5 M319.4,269.1c-3.2,0-5.7-1.1-7.5-3.1c-1.8-2.1-2.7-5.1-2.7-8.9
	c0-3.9,0.9-7,2.7-9.1c1.8-2.1,4.3-3.2,7.4-3.2s5.5,1,7.2,3.1c1.8,2,2.6,5.1,2.6,9.1s-0.8,7.1-2.5,9.2
	C325.1,268,322.6,269.1,319.4,269.1 M319.8,237.5c-6.1,0-10.9,1.8-14.4,5.3s-5.2,8.4-5.2,14.5c0,5.8,1.7,10.5,5.1,13.8
	c3.4,3.4,8,5.1,13.6,5.1c5.9,0,10.7-1.8,14.1-5.4c3.5-3.6,5.2-8.4,5.2-14.4c0-5.9-1.6-10.6-4.9-14
	C330.1,239.2,325.5,237.5,319.8,237.5 M286.8,244.8v-6.4h-8.7v37h8.7v-18.9c0-3.2,0.7-5.9,2.2-7.9c1.4-2,3.3-3,5.6-3
	c0.8,0,1.7,0.1,2.6,0.4c0.9,0.3,1.6,0.5,2,0.8l0.4,0.3v-8.8l-0.1-0.1c-0.8-0.3-2-0.5-3.4-0.5c-2.2,0-4.1,0.7-5.8,2.1
	C288.8,241.1,287.7,242.7,286.8,244.8L286.8,244.8z M262.5,237.5c-4,0-7.6,0.9-10.6,2.5c-3,1.7-5.4,4.1-7,7.2
	c-1.6,3.1-2.4,6.6-2.4,10.6c0,3.5,0.8,6.7,2.3,9.5s3.7,5,6.5,6.6c2.8,1.5,6,2.3,9.5,2.3c4.1,0,7.7-0.8,10.5-2.5l0.1-0.1v-8l-0.4,0.3
	c-1.3,0.9-2.7,1.7-4.3,2.2c-1.5,0.5-2.9,0.8-4.2,0.8c-3.4,0-6.2-1.1-8.1-3.2c-2-2.1-3-5.1-3-8.8c0-3.8,1.1-6.8,3.1-9
	c2.1-2.2,4.8-3.4,8.2-3.4c2.9,0,5.6,1,8.3,2.9l0.4,0.3v-8.4l-0.1-0.1c-1-0.6-2.3-1-4-1.4C265.7,237.7,264.1,237.5,262.5,237.5
	 M236.6,238.4h-8.7v37h8.7V238.4L236.6,238.4z M232.3,222.6c-1.4,0-2.7,0.5-3.7,1.5s-1.6,2.2-1.6,3.6c0,1.4,0.5,2.6,1.5,3.6
	c1,0.9,2.3,1.4,3.7,1.4c1.5,0,2.7-0.5,3.7-1.4s1.6-2.1,1.6-3.6c0-1.4-0.5-2.6-1.5-3.6C235.1,223.1,233.8,222.6,232.3,222.6
	 M210.6,235.7v39.7h8.9v-51.6h-12.3l-15.6,38.3l-15.2-38.3h-12.8v51.6h8.3v-39.7h0.3l16,39.7h6.3l15.8-39.7L210.6,235.7L210.6,235.7
	z"/>
<path class="st2" d="M92.6,247.5h-41v-40.9h40.9L92.6,247.5L92.6,247.5z"/>
<path class="st3" d="M137.8,247.5h-41v-40.9h40.9L137.8,247.5L137.8,247.5z"/>
<path class="st4" d="M92.6,292.7h-41v-40.9h40.9L92.6,292.7L92.6,292.7z"/>
<path class="st5" d="M137.8,292.7h-41v-40.9h40.9L137.8,292.7L137.8,292.7z"/>
</svg>
