<?xml version="1.0" encoding="utf-8"?>
<!-- Generator: Adobe Illustrator 22.1.0, SVG Export Plug-In . SVG Version: 6.00 Build 0)  -->
<svg version="1.1" id="Layer_1" xmlns="http://www.w3.org/2000/svg" xmlns:xlink="http://www.w3.org/1999/xlink" x="0px" y="0px"
	 viewBox="0 0 512 512" style="enable-background:new 0 0 512 512;" xml:space="preserve">
<style type="text/css">
	.st0{fill:#FFFFFF;stroke:url(#SVGID_1_);stroke-width:10;stroke-miterlimit:10;}
	.st1{fill:#FFFFFF;}
	.st2{fill:#8E724F;}
	.st3{fill:#452E23;}
	.st4{fill:#A5A284;}
	.st5{fill:#499D49;}
	.st6{fill:#58AA50;}
</style>
<linearGradient id="SVGID_1_" gradientUnits="userSpaceOnUse" x1="256" y1="493.1" x2="256" y2="18.9">
	<stop  offset="0" style="stop-color:#B7B7B7;stop-opacity:0.5"/>
	<stop  offset="1" style="stop-color:#B00404"/>
</linearGradient>
<circle class="st0" cx="256" cy="256" r="232.1"/>
<path class="st1" d="M230.6,148.1c0,5.3-4.4,9.6-9.8,9.6c-5.4,0-9.8-4.3-9.8-9.5v-0.1c0-5.3,4.4-9.6,9.8-9.6
	C226.2,138.5,230.6,142.8,230.6,148.1L230.6,148.1z M303.6,148.1c0,5.3-4.4,9.6-9.8,9.6s-9.8-4.3-9.8-9.5v-0.1
	c0-5.3,4.4-9.6,9.8-9.6S303.6,142.8,303.6,148.1L303.6,148.1z"/>
<g>
	<path class="st2" d="M435.1,238.3c-0.4,0.1-0.7,0.9-0.7,1.3c-0.1,2.9-0.1,10.8-0.1,16.1c0,0.1,0.2,0.4,0.4,0.4
		c1.1,0.1,3.7,0.1,5.9,0.1c3.1,0,4.9-0.4,5.9-0.9c2.6-1.3,3.8-4.2,3.8-7.4c0-7.1-4.9-9.9-12.2-9.9
		C437.6,238.1,436.2,238.1,435.1,238.3L435.1,238.3z M453.8,271.2c0-7.3-5.3-11.3-14.8-11.3c-0.4,0-3.5-0.1-4.2,0.1
		c-0.2,0.1-0.5,0.2-0.5,0.4c0,5.2-0.1,13.6,0.1,16.8c0.1,1.4,1.2,3.4,2.4,4c1.3,0.7,4.3,0.9,6.3,0.9
		C448.8,282,453.8,278.8,453.8,271.2L453.8,271.2z M420.3,234.2c0.7,0,2.9,0.2,8.5,0.2c5.3,0,9.5-0.1,14.6-0.1c6.3,0,15,2.3,15,11.9
		c0,4.7-3.3,8.5-7.5,10.3c-0.2,0.1-0.2,0.2,0,0.3c6.1,1.5,11.4,5.4,11.4,12.6c0,7.1-4.3,11.6-10.6,14.4c-3.8,1.7-8.6,2.3-13.5,2.3
		c-3.7,0-13.6-0.4-19.1-0.3c-0.6-0.2,0.5-2.9,1-3.3c1.3-0.1,2.3-0.1,3.7-0.6c2-0.5,2.2-1.1,2.5-4.1c0.1-2.6,0.1-11.7,0.1-18.2
		c0-8.9,0.1-15,0-17.9c-0.1-2.3-0.9-3-2.5-3.5c-1.2-0.2-3.3-0.5-4.9-0.7C418.6,237,419.9,234.5,420.3,234.2L420.3,234.2z M378.5,280
		c1.7,1.4,5.1,2,8.2,2c3.9,0,7.8-0.7,11.6-4.2c3.8-3.5,6.5-9,6.5-17.7c0-8.3-3.1-15.1-9.5-19.1c-3.6-2.3-8.3-3.2-13.6-3.2
		c-1.6,0-3.1,0.1-4.1,0.5c-0.2,0.1-0.7,0.8-0.7,1.2c-0.1,1.5-0.1,12.8-0.1,19.4c0,6.9,0,16.4,0.1,17.5
		C376.9,277.6,377.5,279.3,378.5,280L378.5,280z M362.1,234.2c1.4,0,6.7,0.2,9.2,0.2c4.6,0,7.8-0.2,16.4-0.2c7.2,0,13.3,2,17.7,5.7
		c5.3,4.6,8,11,8,18.9c0,11.1-5,17.5-10,21.2c-5,3.8-11.5,6-20.8,6c-4.9,0-13.4-0.1-20.4-0.2h-0.1c-0.4-0.7,0.6-3.2,1.2-3.3
		c1.9-0.2,2.4-0.3,3.3-0.7c1.5-0.6,1.8-1.4,2-4.1c0.2-5.1,0.1-11.2,0.1-18.1c0-4.9,0.1-14.6-0.1-17.7c-0.2-2.6-1.3-3.2-3.5-3.7
		c-1.1-0.2-2.5-0.5-4.6-0.7C360.4,237,361.7,234.7,362.1,234.2L362.1,234.2z"/>
	<path class="st3" d="M274.5,282.9c-1.8-0.2-3.1-0.5-4.7-1.3c-0.2-0.1-0.6-0.9-0.6-1.2c-0.1-2.6-0.1-9.9-0.1-14.9
		c0-4-0.7-7.4-2.3-9.9c-2-2.8-4.8-4.4-8.4-4.4c-3.2,0-7.5,2.2-11,5.3c-0.1,0.1-0.7,0.6-0.6-0.2c0-0.8,0.1-2.4,0.2-3.5
		c0.1-1-0.5-1.5-0.5-1.5c-2.3,1.2-8.8,2.7-11.2,2.9c-1.7,0.4-2.2,2.1-0.4,2.7h0.1c2,0.6,3.3,1.3,4.3,1.9c0.7,0.6,0.7,1.4,0.7,2.1
		c0.1,5.5,0.1,14-0.1,18.6c-0.1,1.8-0.6,2.5-1.9,2.8l0.1-0.1c-1,0.2-1.8,0.4-3,0.6c-0.4,0.4-0.4,2.8,0,3.3c0.8,0,5-0.2,8.5-0.2
		c4.8,0,7.2,0.2,8.5,0.2c0.5-0.6,0.7-2.8,0.4-3.3c-1.4-0.1-2.4-0.2-3.3-0.5c-1.3-0.3-1.7-1-1.7-2.5c-0.1-3.9-0.1-12.2-0.1-17.8
		c0-1.5,0.4-2.3,0.9-2.7c1.7-1.5,4.3-2.5,6.7-2.5c2.3,0,3.8,0.7,5,1.7c1.6,1.3,2.1,3.2,2.3,4.6c0.4,3.2,0.2,9.4,0.2,14.9
		c0,2.9-0.2,3.7-1.3,4.1c-0.5,0.2-1.8,0.5-3.3,0.7c-0.5,0.5-0.4,2.8,0,3.3c2.1,0,4.6-0.2,8.2-0.2c4.5,0,7.4,0.2,8.5,0.2
		C274.6,285.6,274.8,283.5,274.5,282.9L274.5,282.9z M294.5,254.8c-3.8,0-6.2,3-6.2,7.7c0,4.8,2.1,10.3,8,10.3c1,0,2.9-0.4,3.8-1.5
		c1.4-1.3,2.3-4,2.3-6.8C302.4,258.5,299.5,254.8,294.5,254.8L294.5,254.8z M294,287.3c-1.4,0-2.5,0.4-3.1,0.8c-3,2-4.4,3.9-4.4,6.2
		c0,2.1,0.8,3.8,2.5,5.3c2.1,1.8,5,2.7,8.7,2.7c7.4,0,10.6-4.1,10.6-8c0-2.8-1.4-4.6-4.2-5.7C302.2,287.8,298.5,287.3,294,287.3
		L294,287.3z M294.5,306.5c-4.4,0-7.6-1-10.4-3.1c-2.7-2.1-3.8-5.2-3.8-7.3c0-0.6,0.1-2.2,1.4-3.7c0.8-0.9,2.5-2.6,6.7-5.5
		c0.1-0.1,0.2-0.1,0.2-0.3c0-0.1-0.1-0.3-0.3-0.4c-3.4-1.3-4.4-3.5-4.7-4.6v-0.1c-0.1-0.4-0.2-0.9,0.4-1.3c0.5-0.4,1.2-0.8,2-1.3
		c1.2-0.7,2.5-1.5,3.3-2.2c0.1-0.1,0.1-0.3,0.1-0.4s-0.1-0.3-0.3-0.4c-5.1-1.7-7.6-5.5-7.6-11.3c0-3.8,1.7-7.1,4.6-9.3
		c2-1.6,7.1-3.6,10.4-3.6h0.2c3.4,0.1,5.3,0.8,8,1.8c1.4,0.5,2.8,0.7,4.7,0.7c2.8,0,4.1-0.9,5.1-1.9c0.1,0.1,0.2,0.5,0.3,1.5
		c0.1,1-0.2,2.4-0.9,3.4c-0.6,0.8-1.9,1.4-3.2,1.4h-0.4c-1.3-0.1-1.9-0.3-1.9-0.3l-0.3,0.1c-0.1,0.1,0,0.3,0.1,0.5l0.1,0.1
		c0.1,0.7,0.4,2.7,0.4,3.2c0,6-2.4,8.7-4.9,10.7c-2.5,1.8-5.3,3-8.5,3.3c-0.1,0-0.4,0-1,0.1c-0.4,0-0.9,0.1-0.9,0.1h-0.1
		c-0.6,0.1-2,0.9-2,2.1c0,1.1,0.7,2.4,3.8,2.7c0.7,0.1,1.3,0.1,2,0.1c4.1,0.3,9.3,0.7,11.7,1.5c3.3,1.3,5.4,4.3,5.4,7.9
		c0,5.5-3.8,10.5-10.2,13.7C301.1,305.7,298,306.5,294.5,306.5L294.5,306.5z M335.8,255.1c-1.5,0-2.9,0.4-3.9,1.1
		c-2.8,1.8-4.3,5.3-4.3,10.5c0,9.7,4.8,16.4,11.6,16.4c2,0,3.6-0.6,5-1.8c2.1-1.8,3.2-5.3,3.2-10.2
		C347.4,261.6,342.7,255.1,335.8,255.1L335.8,255.1z M337.1,286.7c-12.3,0-16.7-9.2-16.7-17.8c0-6,2.4-10.7,7.2-14
		c3.4-2.1,7.5-3.3,11.1-3.3c9.4,0,16,6.9,16,16.7c0,6.7-2.6,12-7.6,15.2C344.7,285.1,340.5,286.7,337.1,286.7L337.1,286.7
		L337.1,286.7z M208.1,255.1c-1.5,0-2.9,0.4-3.9,1.1c-2.8,1.8-4.3,5.3-4.3,10.5c0,9.7,4.8,16.4,11.6,16.4c2,0,3.6-0.6,5-1.8
		c2.1-1.8,3.2-5.3,3.2-10.2C219.7,261.6,215,255.1,208.1,255.1L208.1,255.1z M209.4,286.7c-12.3,0-16.7-9.2-16.7-17.8
		c0-6,2.4-10.7,7.2-14c3.4-2.1,7.5-3.3,11.1-3.3c9.4,0,16,6.9,16,16.7c0,6.7-2.6,12-7.6,15.2C217,285.1,212.9,286.7,209.4,286.7
		L209.4,286.7z M126.6,285.9c-0.1-0.2-0.3-0.9-0.2-1.7c0-0.6,0.1-1,0.2-1.1c1.5-0.2,2.3-0.4,3.2-0.7c1.4-0.4,2-1.2,2.1-3
		c0.2-4.4,0.2-12.8,0.1-18.6v-0.1c0-0.7,0-1.5-0.8-2.1c-1.2-0.7-2.5-1.4-4.3-1.9c-0.7-0.2-1.1-0.6-1-1c0-0.4,0.4-1,1.4-1.1
		c2.4-0.2,8.6-1.8,11.1-2.9c0.1,0.1,0.4,0.6,0.4,1.2l-0.1,0.8c-0.1,0.8-0.1,1.8-0.1,2.7c0,0.3,0.3,0.5,0.6,0.5
		c0.1,0,0.3-0.1,0.4-0.1c4.6-3.7,8.8-5,11-5c3.5,0,6.3,1.7,8.4,5.2c0.1,0.2,0.3,0.3,0.5,0.3c0.1,0,0.4-0.1,0.4-0.2
		c4.3-3.3,8.5-5.3,11.4-5.3c6.7,0,10.7,5.1,10.7,13.7c0,2.4,0,5.6-0.1,8.5c0,2.6-0.1,4.9-0.1,6.6c0,0.4,0.5,1.5,1.3,1.8
		c1,0.5,2.4,0.7,4.2,1h0.1c0.1,0.5-0.1,2.4-0.4,2.8c-0.4,0-1.1,0-1.8-0.1c-1.8-0.1-3.7-0.1-5.5-0.1c-4.5,0-6.8,0.1-9.1,0.2
		c-0.1-0.6-0.2-2.4,0-2.8c1.3-0.2,2-0.4,2.8-0.7c1.4-0.4,1.8-1.1,1.9-3c0-1.4,0.3-13.3-0.1-16.2c-0.4-2.9-2.6-6.4-7.4-6.4
		c-1.8,0-4.6,0.7-7.4,2.9c-0.1,0.1-0.3,0.5-0.3,0.7v0.1c0.3,1.5,0.3,3.3,0.3,6v4.8c0,3.3-0.1,6.4,0,8.8c0,1.6,0.9,2,1.7,2.3
		c0.4,0.1,0.7,0.1,1.1,0.2c0.7,0.1,1.3,0.3,2.3,0.5c0.1,0.3,0.1,1.3-0.1,2.1c-0.1,0.4-0.2,0.7-0.3,0.7c-2.5-0.1-5-0.1-8.7-0.1
		c-1.1,0-3,0.1-4.6,0.1c-1.3,0-2.5,0.1-3.3,0.1c-0.1-0.1-0.2-0.7-0.2-1.5c0-0.7,0.1-1.2,0.3-1.3c0.4-0.1,0.7-0.1,1-0.1
		c0.9-0.1,1.6-0.3,2.3-0.4c1.2-0.4,1.7-1,1.7-2.7c0.2-3.7,0.4-14.2-0.1-16.9c-0.9-4.3-3.3-6.4-7.1-6.4c-2.2,0-5.1,1.1-7.4,2.9
		c-0.4,0.3-0.7,1-0.7,1.7v4.3c0,5.3,0,11.9,0.1,14.8c0.1,0.9,0.4,1.9,2,2.3c0.4,0.1,0.9,0.2,1.7,0.3l1.3,0.2
		c0.1,0.4,0.1,2.2-0.2,2.8c-0.7,0-1.6-0.1-2.6-0.1c-1.5-0.1-3.5-0.1-5.6-0.1c-2.5,0-4.3,0.1-5.8,0.1
		C128.3,285.9,127.5,285.9,126.6,285.9L126.6,285.9z"/>
	<path class="st1" d="M88.6,303.6l-3-1c0,0,0.4-15.4-5.1-16.5c-3.6-4.3,0.6-181.2,13.6-0.6c0,0-4.5,2.3-5.3,6.2
		C88,295.5,88.6,303.6,88.6,303.6L88.6,303.6z"/>
	<path class="st4" d="M88.6,303.6l-3-1c0,0,0.4-15.4-5.1-16.5c-3.6-4.3,0.6-181.2,13.6-0.6c0,0-4.5,2.3-5.3,6.2
		C88,295.5,88.6,303.6,88.6,303.6L88.6,303.6z"/>
	<path class="st1" d="M90.2,288.7c0,0,26-17.4,19.9-53.6c-5.9-26.3-19.7-34.9-21.2-38.2c-1.7-2.4-3.3-6.5-3.3-6.5l1.1,73.1
		C86.7,263.7,84.4,286,90.2,288.7"/>
	<path class="st5" d="M90.2,288.7c0,0,26-17.4,19.9-53.6c-5.9-26.3-19.7-34.9-21.2-38.2c-1.7-2.4-3.3-6.5-3.3-6.5l1.1,73.1
		C86.7,263.7,84.4,286,90.2,288.7"/>
	<path class="st1" d="M84.1,289.7c0,0-24.4-16.9-23-46.8c1.4-29.8,18.6-44.5,21.9-47.1c2.2-2.4,2.2-3.2,2.4-5.6
		c1.5,3.3,1.2,49.6,1.4,55C87.5,266.2,85.7,285.7,84.1,289.7z"/>
	<path class="st6" d="M84.1,289.7c0,0-24.4-16.9-23-46.8c1.4-29.8,18.6-44.5,21.9-47.1c2.2-2.4,2.2-3.2,2.4-5.6
		c1.5,3.3,1.2,49.6,1.4,55C87.5,266.2,85.7,285.7,84.1,289.7z"/>
</g>
</svg>
