<?xml version="1.0" encoding="utf-8"?>
<!-- Generator: Adobe Illustrator 22.1.0, SVG Export Plug-In . SVG Version: 6.00 Build 0)  -->
<svg version="1.1" id="Layer_1" xmlns="http://www.w3.org/2000/svg" xmlns:xlink="http://www.w3.org/1999/xlink" x="0px" y="0px"
	 viewBox="0 0 512 512" style="enable-background:new 0 0 512 512;" xml:space="preserve">
<style type="text/css">
	.st0{fill:#B00404;}
</style>
<path class="st0" d="M353.5,84c-0.7,0-1.3-0.1-1.9-0.2c-0.6-0.1-1.3-0.3-1.9-0.6c-0.6-0.2-1.2-0.6-1.7-0.9c-0.6-0.4-1.1-0.8-1.5-1.2
	s-0.9-1-1.2-1.5c-0.4-0.5-0.7-1.1-0.9-1.7c-0.2-0.6-0.4-1.2-0.6-1.9c-0.1-0.6-0.2-1.3-0.2-1.9s0.1-1.3,0.2-2
	c0.1-0.6,0.3-1.3,0.6-1.9c0.2-0.6,0.6-1.2,0.9-1.7c0.4-0.6,0.8-1.1,1.2-1.5s1-0.9,1.5-1.2c0.5-0.4,1.1-0.7,1.7-0.9
	c0.6-0.2,1.2-0.4,1.9-0.6c1.3-0.3,2.6-0.3,3.9,0c0.6,0.1,1.3,0.3,1.9,0.6c0.6,0.2,1.2,0.6,1.7,0.9c0.5,0.4,1.1,0.8,1.5,1.2
	s0.9,1,1.2,1.5c0.4,0.5,0.7,1.1,0.9,1.7c0.2,0.6,0.4,1.2,0.6,1.9c0.1,0.7,0.2,1.3,0.2,2s-0.1,1.3-0.2,1.9c-0.1,0.6-0.3,1.3-0.6,1.9
	c-0.2,0.6-0.6,1.2-0.9,1.7c-0.4,0.6-0.8,1.1-1.2,1.5s-1,0.9-1.5,1.2c-0.5,0.4-1.1,0.7-1.7,0.9c-0.6,0.2-1.2,0.4-1.9,0.6
	S354.1,84,353.5,84z"/>
<path class="st0" d="M370.8,0h-228C122.5,0,106,16.5,106,36.8v438.4c0,20.3,16.5,36.8,36.8,36.8h228c20.3,0,36.8-16.5,36.8-36.8
	V36.8C407.6,16.5,391.1,0,370.8,0z M387.6,475.2c0,9.3-7.5,16.8-16.8,16.8h-228c-9.3,0-16.8-7.5-16.8-16.8V84h185.1
	c5.5,0,10-4.5,10-10c0-5.5-4.5-10-10-10H126V36.8c0-9.3,7.5-16.8,16.8-16.8h228c9.3,0,16.8,7.5,16.8,16.8V398H181.8
	c-5.5,0-10,4.5-10,10s4.5,10,10,10h205.8V475.2z"/>
<path class="st0" d="M256.8,485c-16.5,0-30-13.5-30-30c0-16.5,13.5-30,30-30c16.5,0,30,13.5,30,30C286.8,471.5,273.3,485,256.8,485z
	 M256.8,445c-5.5,0-10,4.5-10,10c0,5.5,4.5,10,10,10c5.5,0,10-4.5,10-10C266.8,449.5,262.3,445,256.8,445z"/>
<path class="st0" d="M236.8,232.1h-80.1c-5.5,0-10-4.5-10-10v-80.1c0-5.5,4.5-10,10-10h80.1c5.5,0,10,4.5,10,10v80.1
	C246.8,227.6,242.3,232.1,236.8,232.1z M166.7,212.1h60.1v-60.1h-60.1V212.1z"/>
<path class="st0" d="M356.9,232.1h-80.1c-5.5,0-10-4.5-10-10v-80.1c0-5.5,4.5-10,10-10h80.1c5.5,0,10,4.5,10,10v80.1
	C366.9,227.6,362.5,232.1,356.9,232.1z M286.8,212.1h60.1v-60.1h-60.1V212.1z"/>
<path class="st0" d="M236.8,352.2h-80.1c-5.5,0-10-4.5-10-10v-80.1c0-5.5,4.5-10,10-10h80.1c5.5,0,10,4.5,10,10v80.1
	C246.8,347.7,242.3,352.2,236.8,352.2z M166.7,332.2h60.1v-60.1h-60.1V332.2z"/>
<path class="st0" d="M356.9,352.2h-80.1c-5.5,0-10-4.5-10-10v-80.1c0-5.5,4.5-10,10-10h80.1c5.5,0,10,4.5,10,10v40.1
	c0,5.5-4.5,10-10,10s-10-4.5-10-10v-30.1h-60.1v60.1h70.1c5.5,0,10,4.5,10,10S362.5,352.2,356.9,352.2z"/>
</svg>
