<?xml version="1.0" encoding="utf-8"?>
<!-- Generator: Adobe Illustrator 22.1.0, SVG Export Plug-In . SVG Version: 6.00 Build 0)  -->
<svg version="1.1" id="Layer_1" xmlns="http://www.w3.org/2000/svg" xmlns:xlink="http://www.w3.org/1999/xlink" x="0px" y="0px"
	 viewBox="0 0 512 512" style="enable-background:new 0 0 512 512;" xml:space="preserve">
<style type="text/css">
	.st0{fill:#FFFFFF;stroke:url(#SVGID_1_);stroke-width:10;stroke-miterlimit:10;}
	.st1{fill:#2671B8;}
	.st2{font-family:'Roboto-Black';}
	.st3{font-size:72.0471px;}
	.st4{fill:url(#SVGID_2_);}
	.st5{fill:url(#SVGID_3_);}
	.st6{fill:url(#SVGID_4_);}
	.st7{fill:url(#SVGID_5_);}
</style>
<linearGradient id="SVGID_1_" gradientUnits="userSpaceOnUse" x1="256" y1="493.1" x2="256" y2="18.9">
	<stop  offset="0" style="stop-color:#B7B7B7;stop-opacity:0.5"/>
	<stop  offset="1" style="stop-color:#B00404"/>
</linearGradient>
<circle class="st0" cx="256" cy="256" r="232.1"/>
<text transform="matrix(0.8684 0 0 1 118.9795 393.327)" class="st1 st2 st3">Photoshop</text>
<linearGradient id="SVGID_2_" gradientUnits="userSpaceOnUse" x1="-1055.8043" y1="1546.3685" x2="-1046.6592" y2="1527.0447" gradientTransform="matrix(8.3322 0 0 -8.3322 9008.3594 12993.0967)">
	<stop  offset="0" style="stop-color:#A6C8EA"/>
	<stop  offset="0.394" style="stop-color:#A5C9EA"/>
	<stop  offset="0.583" style="stop-color:#96C0E6"/>
	<stop  offset="0.784" style="stop-color:#8CB9E3"/>
	<stop  offset="1" style="stop-color:#88B7E2"/>
</linearGradient>
<path class="st4" d="M162.9,118.7h198.8v195.5H162.9V118.7z"/>
<linearGradient id="SVGID_3_" gradientUnits="userSpaceOnUse" x1="-1052.5552" y1="1543.0005" x2="-1047.3864" y2="1525.8236" gradientTransform="matrix(8.3322 0 0 -8.3322 9008.3594 12993.0967)">
	<stop  offset="0" style="stop-color:#1E1854"/>
	<stop  offset="1" style="stop-color:#121032"/>
</linearGradient>
<path class="st5" d="M178.7,134.2h167.2v164.4H178.7V134.2z"/>
<g>
	
		<linearGradient id="SVGID_4_" gradientUnits="userSpaceOnUse" x1="-1058.6533" y1="1545.338" x2="-1049.5083" y2="1526.0144" gradientTransform="matrix(8.3322 0 0 -8.3322 9008.3594 12993.0967)">
		<stop  offset="0" style="stop-color:#A6C8EA"/>
		<stop  offset="0.394" style="stop-color:#A5C9EA"/>
		<stop  offset="0.583" style="stop-color:#96C0E6"/>
		<stop  offset="0.784" style="stop-color:#8CB9E3"/>
		<stop  offset="1" style="stop-color:#88B7E2"/>
	</linearGradient>
	<path class="st6" d="M210.9,173.7c0,0,12.6-0.3,22.9-0.3c10.5,0,17.9,2.5,22.9,6.8c4.8,4.1,8,11,8,19c0,7.9-2.4,14.4-6.9,19
		c-5.8,5.9-12.5,9.4-24,9.8c-3.2,0.1-6.1,0.2-6.1,0.2V254h-16.8L210.9,173.7L210.9,173.7z M227.7,213.9c1.8,0.2,3,0.1,5.7,0.1
		c9-0.1,14.6-5.6,14.6-13.9c0-7.4-4.6-13.6-13.2-13.9c-3.4-0.1-7,0-7,0v27.7H227.7z"/>
	
		<linearGradient id="SVGID_5_" gradientUnits="userSpaceOnUse" x1="-1053.4402" y1="1547.8632" x2="-1044.259" y2="1528.4629" gradientTransform="matrix(8.3322 0 0 -8.3322 9008.3594 12993.0967)">
		<stop  offset="0" style="stop-color:#A6C8EA"/>
		<stop  offset="0.394" style="stop-color:#A5C9EA"/>
		<stop  offset="0.583" style="stop-color:#96C0E6"/>
		<stop  offset="0.784" style="stop-color:#8CB9E3"/>
		<stop  offset="1" style="stop-color:#88B7E2"/>
	</linearGradient>
	<path class="st7" d="M271.1,236c3.4,2.1,11.4,5.2,16.8,5.2c5.6,0,7.9-2,7.9-5c0-3.1-1.8-6.3-8.7-8.6c-12.2-4.2-16.9-9.1-16.8-16.1
		c0-11.3,9.4-19.7,24.1-19.7c6.9,0,12.4,2.3,16,4.1v13.5c-2.7-1.5-10.3-4.8-15.4-4.8c-4.5,0-7,1.8-7,4.9c0,2.8,2.3,4.3,9.6,6.9
		c11.2,3.9,16,9.7,16.1,18.5c0,11.1-8.6,20-25.6,19.5c-5.9-0.2-12.3-2.5-16.8-4.9L271.1,236L271.1,236z"/>
</g>
</svg>
