<?xml version="1.0" encoding="utf-8"?>
<!-- Generator: Adobe Illustrator 22.1.0, SVG Export Plug-In . SVG Version: 6.00 Build 0)  -->
<svg version="1.1" id="Capa_1" xmlns="http://www.w3.org/2000/svg" xmlns:xlink="http://www.w3.org/1999/xlink" x="0px" y="0px"
	 viewBox="0 0 512 512" style="enable-background:new 0 0 512 512;" xml:space="preserve">
<style type="text/css">
	.st0{fill:#B00404;}
</style>
<g>
	<g>
		<g>
			<g>
				<path class="st0" d="M487.2,35.1H24.8C11.1,35.1,0,46.2,0,59.9V350c0,13.7,11.1,24.8,24.8,24.8h172.9V431h-67.3
					c-12.6,0-22.9,10.3-22.9,22.9c0,12.6,10.3,22.9,22.9,22.9h251.1c12.6,0,22.9-10.3,22.9-22.9c0-12.6-10.3-22.9-22.9-22.9h-67.3
					v-56.2h172.9c13.7,0,24.8-11.1,24.8-24.8V59.9C512,46.2,500.9,35.1,487.2,35.1z M474.8,337.6H37.2V72.3h437.6V337.6z"/>
				<path class="st0" d="M117.3,219l78.2,36.4c2,0.9,4.2,1.4,6.4,1.4c2.9,0,5.7-0.8,8.2-2.4c4.4-2.8,7-7.6,7-12.8v-0.4
					c0-5.9-3.5-11.3-8.8-13.8l-48.9-22.7l48.9-22.7c5.3-2.5,8.8-7.9,8.8-13.8v-0.4c0-5.2-2.6-10-7-12.8c-2.4-1.6-5.3-2.4-8.2-2.4
					c-2.2,0-4.4,0.5-6.4,1.4l-78.2,36.4c-5.3,2.5-8.8,7.9-8.8,13.8v1.1C108.5,211.1,111.9,216.5,117.3,219z"/>
				<path class="st0" d="M217.8,293.1c2.9,3.9,7.4,6.2,12.3,6.2h0.4c6.6,0,12.4-4.2,14.5-10.6l51.5-159.6c1.5-4.6,0.7-9.7-2.2-13.6
					c-2.9-3.9-7.4-6.2-12.3-6.2h-0.4c-6.6,0-12.5,4.2-14.5,10.6l-51.5,159.6C214.1,284.1,214.9,289.2,217.8,293.1z"/>
				<path class="st0" d="M294.9,168.1c0,5.9,3.4,11.3,8.8,13.8l48.9,22.7l-48.9,22.7c-5.3,2.5-8.8,7.9-8.8,13.8v0.4
					c0,5.2,2.6,10,7,12.8c2.4,1.6,5.3,2.4,8.2,2.4c2.2,0,4.4-0.5,6.4-1.4l78.2-36.4c5.3-2.5,8.8-7.9,8.8-13.8v-1.1
					c0-5.9-3.5-11.3-8.8-13.8L316.5,154c-2-0.9-4.2-1.4-6.4-1.4c-2.9,0-5.8,0.8-8.2,2.4c-4.4,2.8-7,7.6-7,12.8V168.1L294.9,168.1z"
					/>
			</g>
		</g>
	</g>
</g>
</svg>
