<?xml version="1.0" encoding="utf-8"?>
<!-- Generator: Adobe Illustrator 22.1.0, SVG Export Plug-In . SVG Version: 6.00 Build 0)  -->
<svg version="1.1" id="Layer_1" xmlns="http://www.w3.org/2000/svg" xmlns:xlink="http://www.w3.org/1999/xlink" x="0px" y="0px"
	 viewBox="0 0 512 512" style="enable-background:new 0 0 512 512;" xml:space="preserve">
<style type="text/css">
	.st0{fill:#FFFFFF;stroke:url(#SVGID_1_);stroke-width:10;stroke-miterlimit:10;}
	.st1{fill:#2671B8;}
	.st2{font-family:'Roboto-Black';}
	.st3{font-size:94.8699px;}
	.st4{fill:url(#SVGID_2_);}
	.st5{fill:url(#SVGID_3_);}
</style>
<linearGradient id="SVGID_1_" gradientUnits="userSpaceOnUse" x1="256" y1="493.1" x2="256" y2="18.9">
	<stop  offset="0" style="stop-color:#B7B7B7;stop-opacity:0.5"/>
	<stop  offset="1" style="stop-color:#B00404"/>
</linearGradient>
<circle class="st0" cx="256" cy="256" r="232.1"/>
<text transform="matrix(0.9893 0 0 1 115.6353 394.0199)" class="st1 st2 st3">Python</text>
<linearGradient id="SVGID_2_" gradientUnits="userSpaceOnUse" x1="-39.8898" y1="164.03" x2="-39.83" y2="164.0892" gradientTransform="matrix(1849.2675 0 0 1853.3917 73932.1172 -303915.6875)">
	<stop  offset="0" style="stop-color:#3A7FB9"/>
	<stop  offset="1" style="stop-color:#376A95"/>
</linearGradient>
<path class="st4" d="M255.2,75.6c-56.7,0-53.2,24.6-53.2,24.6l0.1,25.5h54.1v7.7h-75.6c0,0-36.3-4.1-36.3,53.1s31.7,55.2,31.7,55.2
	h18.9v-26.6c0,0-1-31.7,31.2-31.7h53.7c0,0,30.2,0.5,30.2-29.2v-49C309.9,105.3,314.5,75.6,255.2,75.6z M225.3,92.7
	c5.4,0,9.7,4.3,9.7,9.7l0,0c0,5.4-4.3,9.7-9.7,9.7l0,0c-5.4,0-9.7-4.3-9.7-9.7l0,0C215.6,97.1,220,92.7,225.3,92.7L225.3,92.7z"/>
<linearGradient id="SVGID_3_" gradientUnits="userSpaceOnUse" x1="-40.2016" y1="163.7295" x2="-40.1374" y2="163.7903" gradientTransform="matrix(1849.2671 0 0 1853.3918 74576.5625 -303288.3438)">
	<stop  offset="0" style="stop-color:#FEE053"/>
	<stop  offset="1" style="stop-color:#FFC433"/>
</linearGradient>
<path class="st5" d="M256.8,297.9c56.7,0,53.2-24.6,53.2-24.6l-0.1-25.5h-54.1v-7.7h75.6c0,0,36.3,4.1,36.3-53.1
	S336,131.8,336,131.8h-18.9v26.6c0,0,1,31.7-31.2,31.7h-53.7c0,0-30.2-0.5-30.2,29.2v49C202.1,268.2,197.5,297.9,256.8,297.9
	L256.8,297.9z M286.7,280.8c-5.4,0-9.7-4.3-9.7-9.7l0,0c0-5.4,4.3-9.7,9.7-9.7l0,0c5.4,0,9.7,4.3,9.7,9.7l0,0
	C296.4,276.4,292,280.7,286.7,280.8L286.7,280.8L286.7,280.8z"/>
</svg>
