<?xml version="1.0" encoding="utf-8"?>
<!-- Generator: Adobe Illustrator 22.1.0, SVG Export Plug-In . SVG Version: 6.00 Build 0)  -->
<svg version="1.1" id="Layer_1" xmlns="http://www.w3.org/2000/svg" xmlns:xlink="http://www.w3.org/1999/xlink" x="0px" y="0px"
	 viewBox="0 0 512 512" style="enable-background:new 0 0 512 512;" xml:space="preserve">
<style type="text/css">
	.st0{fill:#FFFFFF;stroke:url(#SVGID_1_);stroke-width:10;stroke-miterlimit:10;}
	.st1{fill:#2671B8;}
	.st2{font-family:'Roboto-Black';}
	.st3{font-size:94.8699px;}
	.st4{fill:#58AEE1;}
</style>
<linearGradient id="SVGID_1_" gradientUnits="userSpaceOnUse" x1="256" y1="493.1" x2="256" y2="18.9">
	<stop  offset="0" style="stop-color:#B7B7B7;stop-opacity:0.5"/>
	<stop  offset="1" style="stop-color:#B00404"/>
</linearGradient>
<circle class="st0" cx="256" cy="256" r="232.1"/>
<text transform="matrix(0.9893 0 0 1 141.3403 418.8514)" class="st1 st2 st3">React</text>
<g>
	<path class="st4" d="M338.5,260.8c-0.6-4.3-1.5-8.7-2.5-13.3c-0.9-4-2-8-3.2-12.2c-3.2-10.8-7.5-22.1-12.6-33.4
		c-2.2-5-4.7-10-7.3-14.9c-2.3-4.4-4.7-8.8-7.2-13.2s-5.1-8.7-7.8-12.8c-3-4.7-6.1-9.3-9.3-13.7c-7.3-10.1-14.9-19.4-22.6-27.6
		c-3-3.1-5.9-6.1-8.9-8.9c-3.4-3.2-6.8-6.1-10.2-8.8c-22.3-17.7-42.2-23-56.1-14.9c-13.9,8-19.3,28-15.1,56.1
		c0.6,4.3,1.5,8.7,2.5,13.3c0.9,4,2,8,3.2,12.2c3.2,10.8,7.5,22.1,12.6,33.4c2.2,5,4.7,10,7.2,14.9c2.3,4.4,4.7,8.8,7.2,13.2
		s5.1,8.7,7.8,12.8c3,4.7,6.1,9.3,9.3,13.8c7.3,10.1,14.9,19.4,22.6,27.6c3,3.1,5.9,6.1,8.9,8.9c3.4,3.2,6.8,6.1,10.2,8.8
		c8.2,6.5,16.1,11.3,23.4,14.4c17.5-4.4,33.6-12.2,47.7-22.6C340.3,284.6,340.4,273.5,338.5,260.8z M325.9,291.7
		c-1.6,7-4.6,11.8-8.9,14.3s-9.9,2.6-16.8,0.5c-7.5-2.3-16.2-7.3-25.2-14.4c-3-2.4-6.1-5-9.1-7.9c-3-2.8-6-5.7-8.9-8.9
		c-5.1-5.4-10.1-11.3-15-17.6c-3.3-4.2-6.5-8.6-9.6-13.2c-4.6-6.6-9-13.6-13.1-20.9c-4.2-7.3-8-14.6-11.5-21.8
		c-2.4-5-4.6-10-6.6-14.9c-3-7.4-5.6-14.7-7.7-21.8c-1.2-4.1-2.3-8.2-3.2-12.1c-0.9-4-1.7-8-2.2-11.8c-1.7-11.4-1.7-21.4,0.1-29.1
		c1.6-7,4.6-11.8,8.9-14.3c2.3-1.3,5-2,8.1-2c2.6,0,5.5,0.5,8.7,1.5c7.5,2.3,16.2,7.3,25.2,14.4c3,2.4,6.1,5,9.1,7.9
		c3,2.8,6,5.7,8.9,8.8c5.1,5.4,10.1,11.3,15,17.6c3.3,4.2,6.5,8.6,9.6,13.2c4.6,6.6,9,13.6,13.1,20.8c4.2,7.3,8,14.6,11.5,21.8
		c2.4,5,4.6,10,6.6,14.9c3,7.4,5.6,14.7,7.7,21.8c1.2,4.1,2.3,8.2,3.2,12.1c0.9,4,1.7,8,2.2,11.8C327.7,274,327.7,284,325.9,291.7z"
		/>
	<path class="st4" d="M348.7,160.8c-4-1.6-8.3-3.1-12.8-4.4c-3.9-1.2-8-2.3-12.1-3.3c-11-2.6-22.8-4.6-35.2-5.8
		c-5.4-0.5-10.9-0.9-16.6-1.2c-4.9-0.2-10-0.3-15-0.3s-10.1,0.1-15,0.3c-5.6,0.3-11.1,0.7-16.6,1.2c-12.4,1.2-24.3,3.2-35.2,5.8
		c-4.2,1-8.2,2.1-12.1,3.3c-4.5,1.4-8.7,2.8-12.8,4.4c-26.4,10.4-41,25-41,41.1s14.6,30.7,41,41.1c4,1.6,8.3,3.1,12.8,4.4
		c3.9,1.2,8,2.3,12.1,3.3c11,2.6,22.8,4.6,35.2,5.8c5.4,0.5,10.9,0.9,16.6,1.2c4.9,0.2,10,0.3,15,0.3c5.1,0,10.1-0.1,15-0.3
		c5.6-0.3,11.1-0.7,16.6-1.2c12.4-1.2,24.3-3.2,35.2-5.8c4.2-1,8.2-2.1,12.1-3.3c4.4-1.4,8.7-2.8,12.8-4.4
		c26.4-10.4,41-25.1,41-41.1C389.7,185.8,375.1,171.2,348.7,160.8z M369.2,216.7c-5.7,5.3-14.4,10.4-25.1,14.6
		c-3.6,1.4-7.4,2.8-11.4,4c-3.9,1.2-7.9,2.3-12.1,3.3c-7.2,1.7-14.8,3.1-22.7,4.2c-5.3,0.7-10.7,1.3-16.2,1.7c-8,0.6-16.3,1-24.6,1
		c-8.4,0-16.6-0.3-24.6-1c-5.5-0.4-11-1-16.2-1.8c-7.9-1.1-15.5-2.5-22.7-4.2c-4.2-1-8.2-2.1-12.1-3.3c-4-1.2-7.8-2.5-11.4-4
		c-10.7-4.2-19.4-9.3-25.1-14.6c-5.3-4.9-7.9-9.9-7.9-14.8c0-4.9,2.7-9.9,7.9-14.8c5.7-5.3,14.4-10.4,25.1-14.6
		c3.6-1.4,7.4-2.8,11.4-4c3.9-1.2,7.9-2.3,12.1-3.3c7.2-1.7,14.8-3.1,22.7-4.2c5.3-0.7,10.7-1.3,16.2-1.8c8-0.6,16.3-1,24.6-1
		c8.4,0,16.6,0.3,24.6,1c5.5,0.4,10.9,1,16.2,1.7c7.9,1.1,15.5,2.5,22.7,4.2c4.2,1,8.2,2.1,12.1,3.3c4,1.2,7.8,2.5,11.4,4
		c10.7,4.2,19.4,9.3,25.1,14.6c5.3,4.9,7.9,9.9,7.9,14.8C377.1,206.8,374.5,211.8,369.2,216.7z"/>
	<path class="st4" d="M323.4,87c-13.9-8-33.9-2.7-56.1,14.9c-3.4,2.7-6.8,5.7-10.2,8.8c-3,2.8-6,5.7-8.9,8.9
		c-7.8,8.2-15.4,17.5-22.7,27.6c-3.2,4.4-6.3,9-9.3,13.7c-2.7,4.2-5.3,8.4-7.8,12.8c-2.5,4.4-4.9,8.8-7.2,13.2c-2.6,5-5,10-7.2,14.9
		c-5.1,11.4-9.4,22.6-12.6,33.4c-1.2,4.1-2.3,8.2-3.2,12.2c-1,4.5-1.9,9-2.5,13.3c-1.9,12.8-1.8,23.9,0.1,32.9
		c14.1,10.4,30.2,18.2,47.7,22.6c7.4-3.1,15.2-7.9,23.4-14.4c3.4-2.7,6.8-5.7,10.2-8.8c3-2.8,6-5.7,8.9-8.9
		c7.8-8.2,15.4-17.5,22.6-27.6c3.2-4.4,6.3-9,9.3-13.8c2.7-4.2,5.3-8.4,7.8-12.8c2.5-4.4,4.9-8.8,7.2-13.2c2.6-5,5-10,7.3-14.9
		c5.1-11.4,9.4-22.6,12.6-33.4c1.2-4.1,2.3-8.2,3.2-12.2c1.1-4.5,1.9-9,2.5-13.3C342.7,115,337.3,95,323.4,87z M320.6,165.2
		c-2.1,7.1-4.7,14.4-7.7,21.8c-2,4.9-4.2,9.9-6.6,14.9c-3.5,7.3-7.3,14.6-11.5,21.8s-8.6,14.2-13.1,20.8c-3.1,4.6-6.4,9-9.6,13.2
		c-4.9,6.3-9.9,12.2-15,17.6c-3,3.1-5.9,6.1-8.9,8.9s-6.1,5.4-9.1,7.9c-9,7.2-17.7,12.2-25.2,14.4c-6.9,2.1-12.6,1.9-16.8-0.5
		c-4.3-2.5-7.3-7.3-8.9-14.3c-1.8-7.6-1.8-17.7-0.1-29.1c0.6-3.8,1.3-7.8,2.2-11.8s2-8,3.2-12.1c2.1-7.1,4.7-14.4,7.7-21.8
		c2-4.9,4.2-9.9,6.6-14.9c3.5-7.3,7.3-14.6,11.5-21.8c4.2-7.3,8.6-14.2,13.1-20.9c3.1-4.6,6.4-9,9.6-13.2c4.9-6.3,9.9-12.2,15-17.6
		c3-3.1,5.9-6.1,8.9-8.9s6.1-5.4,9.1-7.9c9-7.2,17.7-12.2,25.2-14.4c3.2-1,6.1-1.5,8.7-1.5c3.1,0,5.8,0.7,8.1,2
		c4.3,2.5,7.3,7.3,8.9,14.3c1.8,7.6,1.8,17.7,0.1,29.1c-0.6,3.8-1.3,7.8-2.2,11.8S321.8,161.1,320.6,165.2z"/>
	<ellipse class="st4" cx="257" cy="201.9" rx="24.9" ry="24.9"/>
</g>
</svg>
