<?xml version="1.0" encoding="utf-8"?>
<!-- Generator: Adobe Illustrator 22.1.0, SVG Export Plug-In . SVG Version: 6.00 Build 0)  -->
<svg version="1.1" id="Capa_1" xmlns="http://www.w3.org/2000/svg" xmlns:xlink="http://www.w3.org/1999/xlink" x="0px" y="0px"
	 viewBox="0 0 512 512" style="enable-background:new 0 0 512 512;" xml:space="preserve">
<style type="text/css">
	.st0{fill:#B00404;}
</style>
<g>
	<g>
		<path class="st0" d="M34.5,225.4c4.1,0,7.5-3.4,7.5-7.5v-60.6c0-16.9,10.9-29.2,25.9-29.2h88.3c4.1,0,7.5-3.4,7.5-7.5
			s-3.4-7.5-7.5-7.5H67.9c-23.3,0-40.9,19-40.9,44.2v60.6C27,222,30.4,225.4,34.5,225.4z"/>
		<path class="st0" d="M67.9,142.4c-6.9,0-11.6,6-11.6,15v231.6c0,1.8,0.6,3.4,1.7,4.8c1.9,2.3,5.4,4.7,9.8,4.7h376.2
			c4.4,0,8-2.4,9.8-4.7c1.1-1.3,1.7-3,1.7-4.8v-38.8c0-4.1-3.4-7.5-7.5-7.5s-7.5,3.4-7.5,7.5v33.3H71.3v-226h87.4
			c4.1,0,7.5-3.4,7.5-7.5s-3.4-7.5-7.5-7.5H67.9z"/>
		<path class="st0" d="M448.2,327.7c4.1,0,7.5-3.4,7.5-7.5V157.3c0-8.9-4.7-15-11.6-15h-88.8c-4.1,0-7.5,3.4-7.5,7.5
			s3.4,7.5,7.5,7.5h85.4v162.9C440.7,324.4,444.1,327.7,448.2,327.7z"/>
		<path class="st0" d="M497.7,429.6H485V157.3c0-25.2-17.6-44.2-40.9-44.2h-87.6c-4.1,0-7.5,3.4-7.5,7.5s3.4,7.5,7.5,7.5h87.6
			c15,0,25.9,12.3,25.9,29.2v272.2H307.8c-7.9,0-14.3,6.4-14.3,14.3v6.9h-75.1v-6.9c0-7.9-6.4-14.3-14.3-14.3H42V247.9
			c0-4.1-3.4-7.5-7.5-7.5s-7.5,3.4-7.5,7.5v181.7H14.3C6.4,429.6,0,436,0,443.8v17.6c0,17.8,14.5,32.3,32.3,32.3h447.5
			c17.8,0,32.3-14.5,32.3-32.3v-17.6C512,436,505.6,429.6,497.7,429.6z M497,461.5c0,9.5-7.7,17.3-17.3,17.3H32.3
			c-9.5,0-17.3-7.7-17.3-17.3v-16.9h19.5c0,0,0,0,0,0s0,0,0,0h168.9v6.9c0,7.9,6.4,14.3,14.3,14.3h76.6c7.9,0,14.3-6.4,14.3-14.3
			v-6.9h168.9c0,0,0,0,0,0s0,0,0,0H497V461.5z"/>
		<path class="st0" d="M256,173.3c18.7,0,33.8-15.2,33.8-33.8s-15.2-33.8-33.8-33.8s-33.8,15.2-33.8,33.8S237.3,173.3,256,173.3z
			 M256,120.6c10.4,0,18.8,8.4,18.8,18.8s-8.4,18.8-18.8,18.8s-18.8-8.4-18.8-18.8S245.6,120.6,256,120.6z"/>
		<path class="st0" d="M181.4,152c-20.6,20-32.3,47.7-32.3,76.5c0,2.4,0.1,4.8,0.2,7.1c0.7,9.9,9,17.7,18.9,17.7h39.7
			c0.8,2.1,1.6,4.2,2.4,6.2c3.1,8,10.6,13.1,19.2,13.1h52.8c8.6,0,16.1-5.2,19.2-13.1c0.8-2,1.6-4.1,2.4-6.2h39.7
			c9.9,0,18.2-7.8,18.9-17.7c0.2-2.3,0.2-4.7,0.2-7.1c0-28.8-11.7-56.4-32.3-76.5c2.2-14,3.4-26.8,3.4-37.1
			c0-52.8-66.2-91.2-73.8-95.4c0,0-0.1,0-0.1-0.1c0,0,0,0,0,0c-0.2-0.1-0.4-0.2-0.5-0.3c0,0,0,0,0,0c-0.3-0.1-0.5-0.3-0.8-0.4
			c-0.1,0-0.1,0-0.2-0.1c-0.2-0.1-0.4-0.1-0.6-0.2c-0.1,0-0.1,0-0.2-0.1c-0.2-0.1-0.5-0.1-0.7-0.1c0,0-0.1,0-0.1,0
			c-0.6-0.1-1.2-0.1-1.7,0c-0.1,0-0.1,0-0.2,0c-0.2,0-0.4,0.1-0.7,0.1c-0.1,0-0.2,0-0.2,0.1c-0.2,0.1-0.5,0.1-0.7,0.2
			c0,0-0.1,0-0.1,0c-0.3,0.1-0.5,0.2-0.8,0.4c0,0,0,0,0,0C252,19.4,241.8,25,229,34.7c-3.3,2.5-3.9,7.2-1.4,10.5
			c2.5,3.3,7.2,3.9,10.5,1.4c7.5-5.7,14-9.8,17.9-12.2c8.2,4.9,28.8,18.4,44.3,36.8c0,0.1,0.1,0.1,0.1,0.2c0.4,0.5,0.8,1,1.2,1.5
			c0.2,0.2,0.4,0.5,0.6,0.7c0.3,0.4,0.6,0.7,0.9,1.1c0.1,0.1,0.2,0.3,0.3,0.4h-94.7c2.4-3.1,5.1-6.3,8-9.4c2.8-3,2.7-7.8-0.3-10.6
			c-3-2.8-7.8-2.7-10.6,0.3c-3.9,4.2-7.5,8.5-10.6,12.7c-0.1,0.1-0.2,0.2-0.3,0.4c-0.3,0.4-0.6,0.9-0.9,1.3
			c-0.1,0.1-0.2,0.3-0.3,0.4c-0.6,0.8-1.1,1.7-1.7,2.5c-0.1,0.2-0.2,0.3-0.3,0.5c-0.5,0.8-1,1.6-1.5,2.4c-0.1,0.2-0.2,0.4-0.4,0.6
			c-0.5,0.8-0.9,1.5-1.3,2.3c-0.1,0.1-0.2,0.3-0.2,0.4c0,0,0,0.1,0,0.1C181.4,91,178,103,178,114.9C178,125.3,179.3,138,181.4,152z
			 M168.3,238.3c-2.1,0-3.8-1.6-3.9-3.7c-0.1-2-0.2-4-0.2-6.1c0-21.2,7.4-41.7,20.6-57.9c4.4,21.9,10.6,45.6,18,67.7L168.3,238.3
			L168.3,238.3z M347.8,228.5c0,2.1-0.1,4.1-0.2,6.1c-0.1,2.1-1.9,3.7-3.9,3.7h-34.5c7.4-22.1,13.6-45.8,18-67.7
			C340.4,186.8,347.8,207.3,347.8,228.5z M312.7,90.1c4.8,9.8,6.2,18.3,6.2,24.8c0,32.9-13.8,94-31.4,139.2
			c-0.8,2.2-2.9,3.6-5.2,3.6h-52.8c-2.3,0-4.4-1.4-5.2-3.6C206.8,208.9,193,147.8,193,114.9c0-8.1,2.1-16.4,6.2-24.8
			C199.2,90.1,312.7,90.1,312.7,90.1z"/>
		<path class="st0" d="M256,351.7c-6.2-5.6-10.2-13.2-11.1-21.6c-0.4-4.1-4.1-7.1-8.2-6.7c-4.1,0.4-7.1,4.1-6.7,8.2
			c1.5,14.7,9.5,27.7,21.9,35.8c1.2,0.8,2.7,1.2,4.1,1.2c1.4,0,2.9-0.4,4.1-1.2c13.9-9,22.2-24.3,22.2-40.9
			c0-16.5-8.3-31.8-22.2-40.9c-2.5-1.6-5.7-1.6-8.2,0c-4.5,2.9-8.4,6.5-11.7,10.7c-2.6,3.3-2,8,1.2,10.5c3.2,2.6,8,2,10.5-1.2
			c1.2-1.5,2.6-3,4-4.3c7.1,6.4,11.3,15.4,11.3,25.2C267.3,336.3,263.1,345.4,256,351.7z"/>
	</g>
</g>
</svg>
