<?xml version="1.0" encoding="utf-8"?>
<!-- Generator: Adobe Illustrator 22.1.0, SVG Export Plug-In . SVG Version: 6.00 Build 0)  -->
<svg version="1.1" id="Layer_1" xmlns="http://www.w3.org/2000/svg" xmlns:xlink="http://www.w3.org/1999/xlink" x="0px" y="0px"
	 viewBox="0 0 512 512" style="enable-background:new 0 0 512 512;" xml:space="preserve">
<style type="text/css">
	.st0{fill:#B00404;}
</style>
<path class="st0" d="M393.6,392.5h-17.1v34.1H222.9v17.1h153.6v25.6c0,14.1-11.5,25.6-25.6,25.6H163.2c-9.1,0-17.6-4.9-22.2-12.8
	l-14.8,8.5c7.7,13.2,21.7,21.3,37,21.3h187.7c23.6,0,42.6-19.1,42.7-42.7V392.5z"/>
<path class="st0" d="M248.5,460.8h17.1v17.1h-17.1V460.8z"/>
<path class="st0" d="M299.7,230.4v-17.1h-26c-4.3-54.5-47.5-97.7-102-102v-26h-17.1v26c-5.8,0.4-11.5,1.3-17.1,2.7V68.3h136.5V51.2
	H137.6v-8.5c0-14.1,11.5-25.6,25.6-25.6h187.7c6.2,0,12.3,2.3,16.9,6.4l11.3-12.8C371.4,3.8,361.3,0,350.9,0H163.2
	c-23.6,0-42.6,19.1-42.7,42.7v76.8c-38.4,16.1-64.6,52.3-67.8,93.9h-26v17.1h26.1c4,54.6,47.4,97.9,101.9,102v26h17.1v-26
	c54.6-4.1,97.9-47.5,101.9-102H299.7z M154.7,298.7v16.7c-11.9-1.1-23.5-4.4-34.1-9.9v-15.4c0-23.6,19.1-42.7,42.7-42.7
	s42.7,19.1,42.7,42.7v15.4c-10.6,5.4-22.2,8.8-34.1,9.9v-16.7H154.7z M137.6,204.8c0-14.1,11.5-25.6,25.6-25.6s25.6,11.5,25.6,25.6
	c0,14.1-11.5,25.6-25.6,25.6S137.6,218.9,137.6,204.8z M225.8,291.8c-0.9,0.9-1.9,1.5-2.8,2.3v-4c0-22.3-12.5-42.7-32.2-53
	c13.7-11.5,18.7-30.4,12.6-47.3c-6.1-16.8-22.2-28-40.1-28s-33.9,11.2-40.1,28c-6.1,16.8-1.1,35.7,12.6,47.3
	c-19.8,10.3-32.2,30.7-32.2,53v4.1c-0.9-0.8-1.9-1.5-2.8-2.3c-17.7-15.9-28.7-37.8-30.8-61.5h16.6v-17.1H69.8
	c4.2-45.1,39.8-80.7,84.9-84.9v16.6h17.1v-16.6c45.1,4.2,80.7,39.9,84.9,84.9H240v17.1h16.6C254.5,254.1,243.5,276,225.8,291.8
	L225.8,291.8z"/>
<path class="st0" d="M487.5,153.6c4.7,0,8.5-3.8,8.5-8.5V42.7c0-4.7-3.8-8.5-8.5-8.5H299.7c-4.7,0-8.5,3.8-8.5,8.5v102.4
	c0,4.7,3.8,8.5,8.5,8.5H487.5z M308.3,51.2h170.7v85.3H308.3V51.2z"/>
<path class="st0" d="M325.3,68.3h34.1v17.1h-34.1V68.3z"/>
<path class="st0" d="M376.5,68.3h85.3v17.1h-85.3V68.3z"/>
<path class="st0" d="M325.3,102.4h136.5v17.1H325.3V102.4z"/>
<path class="st0" d="M486,170.7c-6.6,0-13,2.4-17.9,6.8l-74.4,65.6v-72.5h-17.1V256h2.5l-48.5,42.8c-31.6,1.8-56.3,27.9-56.3,59.6
	v15.1c0,8.5-4.8,16.2-12.3,20c-3.5,1.8-5.4,5.7-4.5,9.6s4.4,6.6,8.3,6.6h59.7c31.6,0,57.8-24.7,59.6-56.3l121.4-137.6
	c7-8,8.8-19.4,4.4-29.1C506.3,176.9,496.6,170.7,486,170.7z M325.3,392.5h-39c3.2-5.8,4.9-12.4,4.9-19.1v-15.1
	c0-22.2,17.1-40.7,39.3-42.5l37.4,37.4C366.1,375.4,347.6,392.5,325.3,392.5z M493.5,204.4l-117.3,133l-29.8-29.8l133-117.3
	c4-3.5,10-3.3,13.7,0.4C496.8,194.4,497,200.4,493.5,204.4z"/>
<path class="st0" d="M9.6,469.3h187.7c4.7,0,8.5-3.8,8.5-8.5v-68.3c0-4.7-3.8-8.5-8.5-8.5h-59.7v-42.7h-17.1V384H9.6
	c-4.7,0-8.5,3.8-8.5,8.5v68.3C1.1,465.5,4.9,469.3,9.6,469.3z M18.1,401.1h170.7v51.2H18.1V401.1z"/>
<path class="st0" d="M35.2,418.1h42.7v17.1H35.2V418.1z"/>
<path class="st0" d="M94.9,418.1h76.8v17.1H94.9V418.1z"/>
<path class="st0" d="M9.6,119.5h85.3c4.7,0,8.5-3.8,8.5-8.5V42.7c0-4.7-3.8-8.5-8.5-8.5H9.6c-4.7,0-8.5,3.8-8.5,8.5v68.3
	C1.1,115.6,4.9,119.5,9.6,119.5z M18.1,51.2h68.3v51.2H18.1V51.2z"/>
<path class="st0" d="M35.2,68.3h34.1v17.1H35.2V68.3z"/>
</svg>
