<?xml version="1.0" encoding="utf-8"?>
<!-- Generator: Adobe Illustrator 22.1.0, SVG Export Plug-In . SVG Version: 6.00 Build 0)  -->
<svg version="1.1" id="Layer_1" xmlns="http://www.w3.org/2000/svg" xmlns:xlink="http://www.w3.org/1999/xlink" x="0px" y="0px"
	 viewBox="0 0 512 512" style="enable-background:new 0 0 512 512;" xml:space="preserve">
<style type="text/css">
	.st0{fill:#FFFFFF;stroke:url(#SVGID_1_);stroke-width:10;stroke-miterlimit:10;}
	.st1{fill:#010101;}
</style>
<linearGradient id="SVGID_1_" gradientUnits="userSpaceOnUse" x1="256" y1="493.1" x2="256" y2="18.9">
	<stop  offset="0" style="stop-color:#B7B7B7;stop-opacity:0.5"/>
	<stop  offset="1" style="stop-color:#B00404"/>
</linearGradient>
<circle class="st0" cx="256" cy="256" r="232.1"/>
<path class="st1" d="M196.1,279.6h-0.2l-11-43.9H172l-11,43.9h-0.2l-10.2-43.9H137l17.1,61.5H167l11.3-42h0.2l11.3,42h12.9
	l17.1-61.5h-13.6L196.1,279.6z M358.6,234.7c-16.2,0-25.9,10.5-25.9,28.1v7.4c0,17.8,9.6,28,25.9,28s24.4-9.9,24.4-21v-1.1h-12.2
	c0,6.4-3.2,11.3-11.9,11.3c-8.8,0-13.2-5.5-13.2-17.2v-7.4c0-11.6,4.4-17.4,13.1-17.4c8.2,0,12,5.4,12,11.5H383v-0.6
	C383,244.3,373.9,234.7,358.6,234.7L358.6,234.7z M240.5,235.7l-19.8,61.5h12.8l4.5-15.5h19.5l4.4,15.5h13.7l-19.8-61.5L240.5,235.7
	L240.5,235.7z M240.6,272.2l7-24.4h0.1l6.9,24.4H240.6z M434.4,235.7v24.7h-25.1v-24.7h-12.8v61.5h12.8V271h25.1v26.2h12.8v-61.5
	L434.4,235.7L434.4,235.7z M275.1,246.3h18.3v50.9h12.7v-50.9h18.3v-10.6h-49.3V246.3z"/>
<g>
	<path class="st1" d="M106.8,234.6c-6.9-0.5-12.8,3.9-16,3.9c-3.3,0-8.4-3.8-13.9-3.7c-7.1,0.1-13.7,4.1-17.4,10.5
		c-7.4,12.8-1.9,31.9,5.3,42.3c3.5,5.1,7.7,10.8,13.2,10.6c5.3-0.2,7.3-3.4,13.7-3.4c6.4,0,8.2,3.4,13.9,3.3
		c5.7-0.1,9.3-5.2,12.8-10.3c4.1-5.9,5.7-11.6,5.8-11.9c-0.1,0-11.2-4.3-11.3-17c-0.1-10.6,8.7-15.7,9.1-16
		C117.2,235.6,109.5,234.8,106.8,234.6L106.8,234.6z M102.5,227.8c2.9-3.5,4.9-8.5,4.4-13.4c-4.2,0.2-9.3,2.8-12.4,6.4
		c-2.7,3.1-5.1,8.2-4.5,13C94.8,234.1,99.6,231.3,102.5,227.8z"/>
</g>
</svg>
